<?xml version="1.0" standalone="no"?>
<!DOCTYPE svg PUBLIC "-//W3C//DTD SVG 1.1//EN" "http://www.w3.org/Graphics/SVG/1.1/DTD/svg11.dtd" >
<svg xmlns="http://www.w3.org/2000/svg">
<metadata>Generated by IcoMoon</metadata>
<defs>
<font id="icomoon" horiz-adv-x="1024">
<font-face units-per-em="1024" ascent="960" descent="-64" />
<missing-glyph horiz-adv-x="1024" />
<glyph unicode="&#x20;" d="" horiz-adv-x="512" />
<glyph unicode="&#x21;" d="M0 960h256v-256h-256zM384 960h256v-256h-256zM768 960h256v-256h-256zM0 576h256v-256h-256zM384 576h256v-256h-256zM768 576h256v-256h-256zM0 192h256v-256h-256zM384 192h256v-256h-256zM768 192h256v-256h-256z" />
<glyph unicode="&#x22;" d="M239.082-56.832c-68.164 0-123.592 55.428-123.592 123.548s55.428 123.548 123.592 123.548c68.118 0 123.504-55.428 123.504-123.548s-55.386-123.548-123.504-123.548zM239.082 104.336c-20.792 0-37.71-16.918-37.71-37.666s16.918-37.666 37.71-37.666c20.748 0 37.62 16.918 37.62 37.666s-16.83 37.666-37.622 37.666zM789.636-56.832c-68.118 0-123.504 55.428-123.504 123.548s55.386 123.548 123.504 123.548 123.548-55.428 123.548-123.548-55.428-123.548-123.548-123.548zM789.636 104.336c-20.746 0-37.62-16.918-37.62-37.666s16.874-37.666 37.62-37.666 37.666 16.918 37.666 37.666-16.918 37.666-37.666 37.666zM951.118 265.818h-856.064l-95.054 315.57 82.186 24.754 76.71-254.442h717.424l83.344 601.178h197.898v-85.884h-123.102z" horiz-adv-x="1158" />
<glyph unicode="&#x23;" d="M315.278 745.758l1106.944-650.866-57.174-97.224-1106.944 650.866zM194.674 579.642c-87.494 0-164.466 59.106-187.106 143.758-28.558 106.042 32.94 212.538 136.25 240.3 19.284 5.062 36.068 7.28 52.962 7.28 87.61 0 164.694-59.106 187.334-143.702 14.166-52.85 7.282-105.074-18.604-149.958-25.94-44.886-67.754-76.972-117.76-90.398-19.228-5.064-36.236-7.282-53.076-7.282zM196.778 858.17c-7.054 0-14.11-0.966-21.050-2.786-45.966-12.232-71.736-56.834-60.188-100.070 12.402-45.568 57.174-71.738 100.182-60.13 23.724 6.258 41.246 19.74 52.11 38.458 10.81 18.774 13.71 40.676 8.078 61.554-10.24 38.286-42.438 62.976-79.132 62.976zM1365.164 898.22l57.116-97.224-1107.058-650.638-57.116 97.224zM196.894-74.98c-0.058 0-0.058 0 0 0-16.896 0-33.792 2.22-50.234 6.598-106.156 28.5-167.652 134.998-139.948 238.194 23.494 87.438 100.466 146.546 188.018 146.546 16.896 0 33.85-2.274 50.29-6.656 52.906-14.052 94.662-46.138 120.548-91.022s32.768-97.166 19.342-147.17c-23.494-87.38-100.522-146.488-188.016-146.488zM194.674 203.606c-36.522 0-68.666-24.69-78.222-60.13-12.46-45.966 13.312-90.566 56.548-102.174 9.67-2.502 16.724-3.414 23.778-3.414 36.638 0 68.834 24.69 78.336 60.076 12.346 46.022-13.426 90.624-56.662 102.23-9.614 2.446-16.724 3.414-23.778 3.414z" horiz-adv-x="1422" />
<glyph unicode="&#x24;" d="M0 960v-1024h921.6v1024h-921.6zM819.2 38.4h-716.8v819.2h716.8v-819.2zM665.6 601.6h-409.6v102.4h409.6v-102.4zM665.6 396.8h-409.6v102.4h409.6v-102.4zM665.6 192h-409.6v102.4h409.6v-102.4z" horiz-adv-x="922" />
<glyph unicode="&#x25;" d="M687.99-17.454h-687.99v93.092h596.294v512h91.694zM417.094 307.712l-62.558 68.934 288.536 261.77 288.488-261.77-62.558-68.934-225.932 204.986zM1256.728-64h-93.090v930.908h-1070.546v-791.272h-93.090v884.364h1256.728z" horiz-adv-x="1256" />
<glyph unicode="&#x26;" d="M267.13 960v-222.608h84.858l4.186 133.564h756.868v-578.782h-133.566v-89.044h222.608v756.87zM979.478-64h-979.478v801.392h979.478v-801.392zM89.044 25.044h801.392v623.304h-801.392v-623.304z" horiz-adv-x="1202" />
<glyph unicode="&#x27;" d="M307.4 765.4c0-62.298-50.502-112.8-112.8-112.8s-112.8 50.502-112.8 112.8c0 62.298 50.502 112.8 112.8 112.8s112.8-50.502 112.8-112.8zM624.8 765.4c0-62.298-50.502-112.8-112.8-112.8s-112.8 50.502-112.8 112.8c0 62.298 50.502 112.8 112.8 112.8s112.8-50.502 112.8-112.8zM942.2 765.4c0-62.298-50.502-112.8-112.8-112.8s-112.8 50.502-112.8 112.8c0 62.298 50.502 112.8 112.8 112.8s112.8-50.502 112.8-112.8zM307.4 451c0-62.298-50.502-112.8-112.8-112.8s-112.8 50.502-112.8 112.8c0 62.298 50.502 112.8 112.8 112.8s112.8-50.502 112.8-112.8zM624.8 451c0-62.298-50.502-112.8-112.8-112.8s-112.8 50.502-112.8 112.8c0 62.298 50.502 112.8 112.8 112.8s112.8-50.502 112.8-112.8zM942.2 451c0-62.298-50.502-112.8-112.8-112.8s-112.8 50.502-112.8 112.8c0 62.298 50.502 112.8 112.8 112.8s112.8-50.502 112.8-112.8zM307.4 130.6c0-62.298-50.502-112.8-112.8-112.8s-112.8 50.502-112.8 112.8c0 62.298 50.502 112.8 112.8 112.8s112.8-50.502 112.8-112.8zM624.8 130.6c0-62.298-50.502-112.8-112.8-112.8s-112.8 50.502-112.8 112.8c0 62.298 50.502 112.8 112.8 112.8s112.8-50.502 112.8-112.8zM942.2 130.6c0-62.298-50.502-112.8-112.8-112.8s-112.8 50.502-112.8 112.8c0 62.298 50.502 112.8 112.8 112.8s112.8-50.502 112.8-112.8z" />
<glyph unicode="&#x28;" d="M402.746 813.254l-320-320c-24.994-24.992-24.994-65.516 0-90.508l320-320c24.994-24.992 65.516-24.992 90.51 0s24.996 65.516 0 90.508l-210.748 210.746h613.492c35.346 0 64 28.652 64 64s-28.654 64-64 64h-613.492l210.746 210.746c12.496 12.496 18.746 28.876 18.746 45.254s-6.248 32.758-18.744 45.254c-24.996 24.994-65.516 24.994-90.51 0z" />
<glyph unicode="&#x2e;" d="M694.646 443.116c-37.044 0-61.218 28.106-61.218 63.794 0 3.004 0.212 5.862 0.498 8.654 0.11 0.5 0.124 1.072 0.198 1.57 4.236 30.68 27.124 53.568 60.522 53.568 36.976 0 61.222-28.106 61.222-63.792 0.002-35.69-24.244-63.794-61.22-63.794zM611.238 267.18l-88.452 114.288c32.538 10.298 58.574 27.606 77.49 51.062 21.206-26.534 54.318-43.698 94.366-43.698 0.36 0 2.722 0.072 3.076 0.072l-86.486-121.724zM694.646 624.916c-25.386 0-48.024-6.932-66.674-18.81-21.474 74.666-86.446 116.86-185.178 116.86h-155.986v-54.208h160.242c81.726 0 130.164-44.488 130.164-122.228 0-77.67-48.438-122.158-130.164-122.158h-1.428l9.298 13.52c19.988 29.75 37.976 59.144 37.976 86.894 0 56.784-36.010 100.126-106.956 100.126-61.078 0-107.386-47.13-107.386-102.198h58.356c0 27.606 17.918 47.988 49.028 47.988 33.274 0 48.508-19.31 48.508-47.418 0-21.74-13.734-43.126-28.964-65.154l-23.012-33.758h-95.658v-54.21h58.542l-102.13-149.48h244.88v54.212h-144.542l65.084 95.266h34.148c5.65 0 11.194 0.14 16.628 0.428l171.074-223.354h73.52l-56.644 73.236 107.422 156.91c27.644 38.908 59.72 80.962 59.72 129.524 0.004 64.802-49.222 118.010-119.866 118.010z" />
<glyph unicode="&#x31;" d="M1024-64h-1024v1024h1024v-1024zM113.778 49.778h796.446v796.446h-796.446v-796.446zM796.446 163.554h-568.89v568.89h568.89v-568.89zM341.334 277.332h341.334l0.002 341.334h-341.334v-341.334z" />
<glyph unicode="&#x42;" d="M631.768-64h-312.358l-320.238 251.63v185.934l322.954 192.59h306.844l315.472-192.906v-185.304l-312.674-251.944zM346.584 14.77h257.418l261.672 210.866v103.424l-258.798 158.324h-263.050l-265.884-158.602v-102.834l268.642-211.178zM511.174 960h-78.77v-275.692h78.77v275.692zM204.76 693.878l-139.814 165.18-60.1-50.884 139.776-165.14 60.14 50.846zM946.020 808.174l-60.14 50.884-139.776-165.14 60.14-50.884 139.776 165.14zM475.452 400.62l-125.716-125.716 125.678-125.596 125.596 125.596-125.558 125.716z" horiz-adv-x="944" />
<glyph unicode="&#x43;" d="M653.432-70.144l-120.47 253.23h-532.962v783.058h1084.234v-783.058h-228.232l-202.572-253.23zM120.47 303.554h488.568l70.476-148.178 118.606 148.178h165.646v542.118h-843.294v-542.118z" horiz-adv-x="1084" />
<glyph unicode="&#x48;" d="M865.536 959.296l-297.216-232.896-290.624 233.92-277.696-221.12v-296.704l539.84-506.496 31.872 33.984 31.68-34.304 548.608 506.496v297.792l-286.464 219.328zM1024 498.24l-451.712-417.088-444.288 416.768v179.584l149.312 118.848 269.888-217.28 20.032 24.896 19.968-25.408 279.232 218.816 157.568-120.64v-178.496z" horiz-adv-x="1152" />
<glyph unicode="&#x4c;" d="M694.646 443.116c-37.044 0-61.218 28.106-61.218 63.794 0 3.004 0.212 5.862 0.498 8.654 0.11 0.5 0.124 1.072 0.198 1.57 4.236 30.68 27.124 53.568 60.522 53.568 36.976 0 61.222-28.106 61.222-63.792 0.002-35.69-24.244-63.794-61.22-63.794zM611.238 267.18l-88.452 114.288c32.538 10.298 58.574 27.606 77.49 51.062 21.206-26.534 54.318-43.698 94.366-43.698 0.36 0 2.722 0.072 3.076 0.072l-86.486-121.724zM694.646 624.916c-25.386 0-48.024-6.932-66.674-18.81-21.474 74.666-86.446 116.86-185.178 116.86h-155.986v-54.208h160.242c81.726 0 130.164-44.488 130.164-122.228 0-77.67-48.438-122.158-130.164-122.158h-1.428l9.298 13.52c19.988 29.75 37.976 59.144 37.976 86.894 0 56.784-36.010 100.126-106.956 100.126-61.078 0-107.386-47.13-107.386-102.198h58.356c0 27.606 17.918 47.988 49.028 47.988 33.274 0 48.508-19.31 48.508-47.418 0-21.74-13.734-43.126-28.964-65.154l-23.012-33.758h-95.658v-54.21h58.542l-102.13-149.48h244.88v54.212h-144.542l65.084 95.266h34.148c5.65 0 11.194 0.14 16.628 0.428l171.074-223.354h73.52l-56.644 73.236 107.422 156.91c27.644 38.908 59.72 80.962 59.72 129.524 0.004 64.802-49.222 118.010-119.866 118.010zM510.988 43.108c-222.782 0-404.012 181.232-404.012 404.012 0 222.712 181.23 403.942 404.012 403.942 222.71 0 403.974-181.228 403.974-403.942 0-222.78-181.264-404.012-403.974-404.012zM510.988 905.418c-252.676 0-458.294-205.62-458.294-458.298 0-252.746 205.616-458.294 458.294-458.294s458.294 205.548 458.294 458.294c0 252.678-205.616 458.298-458.294 458.298z" />
<glyph unicode="&#x4e;" d="M993.596 494.868h-76.84c0 192.078-151.826 386.324-345.678 386.324s-345.758-194.246-345.758-386.324h-76.84c0 230.478 185.618 463.122 422.558 463.122 237.018-0.038 422.558-232.644 422.558-463.122zM1142.154 149.188c0 118.154-94.798 192.040-225.358 192.040h-38.4v-384.118h38.4c130.6 0 225.358 73.884 225.358 192.078zM1065.316 152.458c0-63.292-43.716-110.514-110.12-123.59v247.058c66.442-13.034 110.12-60.178 110.12-123.47zM263.758 341.23h-38.4c-130.6 0-225.358-73.884-225.358-192.040 0-118.194 94.76-192.118 225.358-192.118h38.4v384.158zM186.958 28.87c-66.402 13.076-110.118 60.26-110.118 123.59s43.716 110.434 110.12 123.51l-0.002-247.098z" horiz-adv-x="1142" />
<glyph unicode="&#x50;" d="M-3.234-64v1024l825.672-512-825.672-512zM77.374 815.126v-734.29l592.076 367.166-592.076 367.124z" horiz-adv-x="820" />
<glyph unicode="&#x52;" d="M49.216 457.848c6.554 0 9.402 1.346 11.428 3.54 2.040 2.166 3.362 5.554 3.362 8.914 0 3.516-1.322 6.902-3.362 9.082-2.026 2.18-4.874 3.696-11.428 3.696h-18.856v-25.23h18.856zM30.36 437.658v-52.166h-22.716v117.8h42.906c12.134 0 19.868-3.386 25.768-8.748 6.4-6.080 10.44-14.648 10.44-24.088 0-9.414-4.040-17.982-10.44-24.062-3.194-3.028-7.080-5.388-11.802-6.9l44.086-54h-28.102l-41.866 52.166h-8.274zM146.762 483.078v-24.372h36.198v-20.214h-36.198v-32.812h49.64v-20.188h-72.342v117.8h70.674v-20.214zM248.864 483.078v-24.372h36.196v-20.214h-36.196v-53h-22.73v117.8h70.702v-20.214zM320.618 503.292h22.728v-117.8h-22.728v117.8zM375.976 503.292h15.996l65.608-76.73v76.73h22.73v-117.8h-15.996l-65.622 76.73v-76.73h-22.716zM537.62 483.078v-24.372h36.184v-20.214h-36.184v-32.812h49.626v-20.188h-72.356v117.8h70.702v-20.214zM658.55 457.848c6.554 0 9.428 1.346 11.454 3.54 2.014 2.166 3.346 5.554 3.346 8.914 0 3.516-1.334 6.902-3.346 9.082-2.026 2.18-4.9 3.696-11.454 3.696h-18.856v-25.23h18.856zM639.694 437.658v-52.166h-22.714v117.8h42.93c12.11 0 19.842-3.386 25.744-8.748 6.4-6.080 10.414-14.648 10.414-24.088 0-9.414-4.014-17.982-10.414-24.062-3.194-3.028-7.082-5.388-11.776-6.9l44.084-54h-28.116l-41.904 52.166h-8.248zM776.402 438.824v-53.332h-22.704v53.332l-40.378 64.468h25.884l25.912-41.404 25.742 41.404h25.936zM870.038 406.066l24.628 29.706c8.208 10.646 12.864 19.894 12.864 34.504v0c0 21.626-18.304 37.070-38.492 37.070h-0.694c-20.19 0-37.17-15.020-38.57-36.71h22.692c0 8.388 7.298 16.122 16.212 16.122 8.954 0 16.148-7.734 16.148-16.122 0-6.196-0.82-12.544-9.364-23.524l-50.678-61.62h87.042v20.574h-41.788zM971.318 444.276c-11.686 0-21.176 9.504-21.176 21.188 0 11.71 9.492 21.166 21.176 21.166 11.724 0 21.202-9.454 21.202-21.166 0-11.682-9.478-21.188-21.202-21.188zM970.676 507.346c-22.858 0-41.906-18.88-41.906-42.224 0-24.012 18.856-41.354 41.238-41.354h1.54l-22.23-38.274h25.064l27.768 47.716c6.236 10.646 11.608 21.266 11.608 33.13 0.004 25.050-21.046 41.006-43.082 41.006z" />
<glyph unicode="&#x57;" d="M1157.566 960h-756.87v-178.086h-178.088v-178.086l-222.608-0.002v-667.826h801.392v222.608h178.086v133.566h178.086v667.826zM712.346 25.044h-623.304v489.738h623.304v-489.738zM890.434 247.654h-89.044v356.174h-489.738v89.044h578.782v-445.216zM1068.522 381.218h-89.044v400.696h-489.738v89.044h578.782v-489.738z" horiz-adv-x="1158" />
<glyph unicode="&#x59;" d="M981.188 799.892c-143.632 20.65-302.332 32.108-469.186 32.108-166.86 0-325.556-11.458-469.194-32.108-27.53-107.726-42.808-226.75-42.808-351.892 0-125.14 15.278-244.166 42.808-351.89 143.638-20.652 302.336-32.11 469.194-32.11 166.854 0 325.552 11.458 469.186 32.11 27.532 107.724 42.812 226.75 42.812 351.89 0 125.142-15.28 244.166-42.812 351.892zM384.002 256v384l320-192-320-192z" />
<glyph unicode="&#x5e;" d="M667.17 476.126l-223.778 223.71v-763.904h-135.918l0.068 763.972-223.778-223.778-96.052 96.050 387.754 387.822 387.756-387.822-96.052-96.050z" horiz-adv-x="750" />
<glyph unicode="&#x61;" d="M857.702 172.83l-363.478 209.92v-446.75h-81.92v449.904l-368.926-213.074-46.86 81.224 360.286 208.076-343.94 198.656 46.9 81.182 352.584-203.614-0.002 421.644h81.92v-418.488l347.094 200.458 46.9-81.182-343.902-198.656 360.326-208.076-46.98-81.224z" horiz-adv-x="902" />
<glyph unicode="&#x62;" d="M512 898.56c-248.832 0-450.56-201.728-450.56-450.56 0-113.766 42.138-217.652 111.718-296.908 70.45 70.452 167.014 110.028 277.862 106.446 141.362-4.558 252.928-71.526 316.928-180.378 117.556 81.306 194.61 217.038 194.61 370.842 0 248.832-201.778 450.56-450.56 450.56zM732.314 287.386c-7.936-13.158-24.934-17.202-37.99-9.268-104.346 63.744-235.622 78.13-390.246 42.854-14.848-3.43-29.748 5.888-33.074 20.838-3.43 14.848 5.836 29.696 20.786 33.076 169.164 38.656 314.318 21.966 431.36-49.46 13.004-7.986 17.152-24.986 9.164-38.042zM786.586 415.182c-9.984-16.282-31.284-21.35-47.566-11.316-119.296 73.318-301.362 94.566-442.572 51.712-18.33-5.53-37.682 4.812-43.212 23.040-5.53 18.33 4.814 37.682 23.040 43.214 161.332 48.998 361.882 25.294 498.996-58.982 16.282-10.086 21.452-31.284 11.316-47.668zM791.296 547.584c-143.104 85.094-379.29 92.826-515.942 51.404-21.914-6.706-45.106 5.734-51.866 27.648-6.604 21.966 5.786 45.21 27.75 51.814 156.928 47.668 417.69 38.452 582.452-59.392 19.764-11.726 26.266-37.222 14.542-56.934s-37.12-26.164-56.934-14.542zM448.102 122.828c-63.386 2.048-116.174-22.682-154.676-68.914 64.716-35.942 139.214-56.474 218.574-56.474 38.246 0 75.418 4.762 110.848 13.774-33.996 69.734-93.236 109.004-174.746 111.616z" />
<glyph unicode="&#x63;" d="M239.126-51.446c-68.162 0-123.592 55.428-123.592 123.548s55.43 123.548 123.592 123.548c68.118 0 123.504-55.428 123.504-123.548s-55.386-123.548-123.504-123.548zM239.126 109.722c-20.792 0-37.71-16.918-37.71-37.666s16.918-37.666 37.71-37.666c20.746 0 37.622 16.918 37.622 37.666s-16.874 37.666-37.622 37.666zM789.636-51.446c-68.118 0-123.504 55.428-123.504 123.548s55.386 123.548 123.504 123.548 123.548-55.428 123.548-123.548-55.472-123.548-123.548-123.548zM789.636 109.722c-20.746 0-37.62-16.918-37.62-37.666s16.874-37.666 37.62-37.666 37.666 16.918 37.666 37.666-16.918 37.666-37.666 37.666zM1034.418 861.606h123.102v85.884h-197.9l-83.302-601.134h-717.422l-76.666 254.396-82.232-24.798 95.054-315.48h856.064l83.298 601.13z" horiz-adv-x="1158" />
<glyph unicode="&#x64;" d="M577 160l426 434q21 21 21 51t-21 51l-51 51q-21 21-51 21t-51-21l-338-338-338 338q-21 21-51 21t-51-21l-51-51q-21-21-21-51t21-51l428-434q32-32 64-32t64 32z" />
<glyph unicode="&#x65;" d="M0 960v-1024h1422.222v1024h-1422.222zM716.402 397.426l-560.014 448.798h1118.492l-558.478-448.798zM447.488 467.17l-333.71-344.234v611.668l333.71-267.436zM536.634 395.718l179.884-144.158 191.546 153.998 344.802-355.782h-1051.59l335.36 345.942zM997.092 477.126l311.354 250.198v-571.334l-311.354 321.136z" horiz-adv-x="1422" />
<glyph unicode="&#x66;" d="M768 748.596h-146.226c-17.306 0-36.608-22.734-36.608-53.198v-105.574h182.836v-150.528h-182.836v-452.096h-172.646v452.046h-156.518v150.578h156.518v88.576c0 127.028 88.166 230.4 209.202 230.4h146.278v-160.206z" />
<glyph unicode="&#x67;" d="M101.888 673.844c0-76.442 25.55-131.686 75.878-164.096 41.216-26.572 89.088-30.566 113.972-30.566 6.042 0 10.854 0.256 14.234 0.462 0 0-7.884-51.354 30.208-102.194l-1.74 0.052c-65.998 0-281.294-13.824-281.294-190.822 0-180.070 197.734-189.184 237.362-189.184 3.122 0 4.916 0.052 4.916 0.052 0.462 0 3.276-0.102 8.090-0.102 25.446 0 91.238 3.174 152.372 32.922 79.258 38.452 119.5 105.422 119.5 198.912 0 90.368-61.236 144.128-105.984 183.45-27.29 23.962-50.892 44.646-50.892 64.768 0 20.48 17.202 35.892 39.014 55.398 35.226 31.538 68.506 76.442 68.506 161.332 0 74.65-9.678 124.722-69.324 156.466 6.246 3.174 28.212 5.478 39.118 7.014 32.308 4.404 79.564 9.422 79.564 35.788v5.070h-235.418c-2.356-0.052-238.080-8.806-238.080-224.716zM481.946 212.378c4.506-71.986-57.088-125.134-149.556-131.84-93.902-6.912-171.264 35.38-175.77 107.366-2.15 34.56 13.004 68.404 42.752 95.386 30.208 27.29 71.578 44.134 116.684 47.514 5.324 0.308 10.598 0.562 15.872 0.562 86.886 0 145.766-51.098 150.016-118.99zM420.454 723.15c23.092-81.254-11.776-166.196-67.328-181.862-6.4-1.792-13.004-2.714-19.662-2.714-50.944 0-101.376 51.506-120.064 122.47-10.444 39.884-9.626 74.702 2.354 108.236 11.776 32.922 32.922 55.246 59.546 62.72 6.4 1.842 13.056 2.714 19.712 2.714 61.44 0 100.966-25.498 125.44-111.564zM817.202 546.202v153.6h-97.28v-153.6h-153.6v-97.28h153.6v-153.6h97.28v153.6h153.6v97.28h-153.6z" />
<glyph unicode="&#x68;" d="M916.394 948.074l-334.3-261.312-334.070 261.312-247.996-191.814v-268.632l582.062-539.688 582.062 539.688v268.632z" horiz-adv-x="1168" />
<glyph unicode="&#x69;" d="M778.24 448c0-147.046-119.246-266.24-266.24-266.24-147.046 0-266.24 119.194-266.24 266.24 0 17.51 1.742 34.61 5.018 51.2h-179.098v-353.894c0-75.98 61.542-137.626 137.626-137.626h605.388c75.98 0 137.626 61.594 137.626 137.626v353.894h-179.046c3.226-16.588 4.966-33.69 4.966-51.2zM814.694 888.32h-605.39c-76.032 0-137.626-61.644-137.626-137.626v-149.094h222.924c48.178 68.096 127.59 112.64 217.394 112.64s169.216-44.544 217.394-112.64h222.926v149.094c0 75.98-61.644 137.626-137.626 137.626zM882.022 718.336c0-13.568-11.058-24.576-24.576-24.576h-73.678c-13.518 0-24.576 11.058-24.576 24.576v73.728c0 13.568 11.11 24.576 24.576 24.576h73.678c13.568 0 24.576-11.060 24.576-24.576v-73.728zM675.84 448c0 90.522-73.37 163.84-163.84 163.84s-163.84-73.318-163.84-163.84 73.37-163.84 163.84-163.84 163.84 73.318 163.84 163.84z" />
<glyph unicode="&#x6a;" d="M136.294 209.070c-75.198 0-136.294-61.334-136.294-136.074 0-75.154 61.1-135.802 136.294-135.802 75.466 0 136.494 60.648 136.494 135.802-0.002 74.74-61.024 136.076-136.494 136.076zM0.158 612.070v-196.258c127.784 0 247.958-49.972 338.458-140.512 90.384-90.318 140.282-211.038 140.282-339.3h197.122c-0.002 372.822-303.282 676.070-675.86 676.070zM0.388 960v-196.356c455.782 0 826.754-371.334 826.754-827.644h196.858c0 564.47-459.254 1024-1023.614 1024z" />
<glyph unicode="&#x6b;" d="M383.898 346.318l-384 613.682h768.154l-384.154-613.682zM184.73 857.6l199.168-318.31 199.27 318.31h-398.438zM768.102-64h-768.206l384 613.682 384.204-613.682zM184.73 38.4h398.438l-199.27 318.31-199.168-318.31z" horiz-adv-x="768" />
<glyph unicode="&#x6c;" d="M800 383l-434-426q-21-21-51-21t-51 21l-51 51q-21 21-21 51t21 51l338 338-338 338q-21 21-21 51t21 51l51 51q21 21 51 21t51-21l434-428q32-32 32-63.5t-32-64.5z" />
<glyph unicode="&#x6d;" d="M511.956 960c-214.486 0-388.394-173.908-388.394-388.438 0-214.572 305.068-635.562 388.438-635.562 61.654 0 388.48 420.992 388.48 635.562-0.044 214.528-173.952 388.438-388.524 388.438zM510.208 380.416c-109.012 0-197.334 88.32-197.334 197.332s88.32 197.332 197.332 197.332 197.332-88.32 197.332-197.332-88.32-197.332-197.332-197.332z" />
<glyph unicode="&#x6e;" d="M259.892 803.84c0-54.426-40.192-98.51-106.29-98.51-62.208 0-102.4 44.082-102.4 98.51 0 55.706 41.522 98.51 105.010 98.51s102.4-42.802 103.68-98.51zM56.422-6.35v633.856h197.018v-633.856h-197.018zM371.354 425.318c0 79.052-2.61 145.152-5.222 202.188h171.11l9.114-88.166h3.89c25.908 41.524 89.446 102.4 195.738 102.4 129.586 0 226.816-86.836 226.816-273.51v-374.63h-197.018v351.284c0 81.664-28.57 137.42-99.84 137.42-54.426 0-86.784-37.58-101.068-73.882-5.222-12.954-6.502-31.078-6.502-49.254v-365.568h-197.018v431.718z" />
<glyph unicode="&#x6f;" d="M93.090-64h-93.090v372.364h93.090v-372.364zM651.636 727.272h-93.092v-791.272h93.092v791.272zM930.908 960h-93.092v-1024h93.092v1024zM372.362 541.092h-93.092v-605.092h93.092v605.092z" horiz-adv-x="930" />
<glyph unicode="&#x70;" d="M441.14 282.726c-26.88-140.954-59.7-276.122-156.98-346.726-30.002 213.094 44.082 373.094 78.49 542.976-58.676 98.816 7.066 297.574 130.866 248.576 152.32-60.262-131.89-367.258 58.88-405.606 199.22-40.038 280.524 345.6 157.030 470.988-178.482 181.146-519.578 4.198-477.594-255.026 10.188-63.386 75.674-82.638 26.164-170.086-114.228 25.294-148.326 115.404-143.924 235.52 7.066 196.558 176.64 334.182 346.726 353.228 215.142 24.116 417.024-78.95 444.826-281.292 31.386-228.352-97.024-475.7-327.116-457.882-62.31 4.762-88.474 35.634-137.37 65.332z" />
<glyph unicode="&#x71;" d="M450.642 387.236h230.42l-115.918-115.918c-15.996-15.996-15.996-41.942 0-57.938s41.924-15.996 57.918 0l185.836 185.846c1.914 1.914 3.614 4.014 5.12 6.256 0.614 0.912 1.024 1.914 1.558 2.846 0.758 1.382 1.586 2.734 2.202 4.198 0.502 1.198 0.758 2.438 1.136 3.666 0.41 1.322 0.922 2.61 1.188 3.994 0.41 2.090 0.554 4.208 0.634 6.328 0.020 0.572 0.174 1.086 0.174 1.658 0 0.634-0.174 1.23-0.196 1.852-0.092 2.048-0.214 4.096-0.624 6.124-0.286 1.476-0.81 2.816-1.25 4.22-0.358 1.148-0.614 2.326-1.066 3.44-0.644 1.578-1.526 3.062-2.376 4.526-0.47 0.83-0.828 1.71-1.362 2.518-1.514 2.294-3.246 4.414-5.182 6.328l-185.794 185.818c-7.996 7.988-18.482 12.002-28.97 12.002s-20.962-4.014-28.97-12.002c-15.996-15.996-15.996-41.942 0-57.918l115.926-115.918h-230.408c-90.808 0-164.69 73.882-164.69 164.702 0 22.62-18.338 40.96-40.96 40.96s-40.96-18.34-40.96-40.96c0-135.99 110.634-246.632 246.61-246.632z" />
<glyph unicode="&#x72;" d="M224 383l434-426q21-21 51-21t51 21l51 51q21 21 21 51t-21 51l-338 338 338 338q21 21 21 51t-21 51l-51 51q-21 21-51 21t-51-21l-434-428q-32-32-32-64t32-64z" />
<glyph unicode="&#x73;" d="M658.286 484.572q0 105.714-75.142 180.858t-180.858 75.142-180.858-75.142-75.142-180.858 75.142-180.858 180.858-75.142 180.858 75.142 75.142 180.858zM950.858 9.142q0-29.714-21.714-51.428t-51.428-21.714q-30.858 0-51.428 21.714l-196 195.428q-102.286-70.858-228-70.858-81.714 0-156.286 31.714t-128.57 85.714-85.714 128.572-31.714 156.286 31.714 156.286 85.714 128.572 128.57 85.714 156.286 31.714 156.286-31.714 128.572-85.714 85.714-128.572 31.714-156.286q0-125.714-70.858-228l196-196q21.142-21.142 21.142-51.428z" horiz-adv-x="950" />
<glyph unicode="&#x74;" d="M983.040 740.198c-34.714-15.41-71.936-25.754-111.052-30.464 39.936 23.91 70.606 61.798 84.992 106.906-37.326-22.118-78.694-38.246-122.674-46.9-35.278 37.582-85.504 61.030-141.106 61.030-106.752 0-193.28-86.528-193.28-193.228 0-15.154 1.69-29.9 5.018-44.032-160.614 8.038-303.052 84.992-398.336 201.932-16.692-28.518-26.266-61.746-26.266-97.178 0-67.072 34.15-126.208 86.016-160.87-31.694 1.024-61.49 9.678-87.552 24.166 0-0.82 0-1.586 0-2.406 0-93.644 66.662-171.724 155.034-189.542-16.18-4.404-33.28-6.758-50.944-6.758-12.442 0-24.526 1.178-36.352 3.43 24.576-76.8 96-132.658 180.53-134.196-66.15-51.866-149.454-82.74-240.026-82.74-15.616 0-30.976 0.922-46.080 2.714 85.504-54.836 187.084-86.836 296.294-86.836 355.482 0 549.888 294.502 549.888 549.938 0 8.346-0.154 16.692-0.562 24.986 37.786 27.238 70.502 61.286 96.462 100.044z" />
<glyph unicode="&#x75;" d="M909.312 728.576c-26.624 28.672-61.44 43.008-106.496 43.008h-344.064v161.792h-256v-112.64h182.272v-49.152h-155.648c-114.688 0-151.552-104.448-155.648-161.792v-436.224h327.68v-210.944h161.792v210.944h382.976v405.504c4.096 12.288 10.24 96.256-36.864 149.504zM507.904 19.968h-49.152v151.552h49.152v-151.552zM131.072 230.912v376.832c0 10.24 10.24 106.496 98.304 106.496h155.648v-299.008h73.728v299.008h202.752c-34.816-38.912-47.104-90.112-47.104-124.928v-358.4h-483.328zM890.88 583.168v-352.256h-219.136v358.4c0 4.096 2.048 124.928 129.024 124.928 28.672 0 49.152-8.192 63.488-24.576 34.816-36.864 26.624-106.496 26.624-106.496z" />
<glyph unicode="&#x76;" d="M509.012 111.446c0.342-0.128 0.682-0.172 0.94-0.298 7.296-2.86 15.104-4.524 23.38-4.524s16.086 1.664 23.38 4.524c0.298 0.128 0.64 0.172 0.938 0.298 7.936 3.244 15.062 8.020 20.992 13.996l213.248 213.248c25.004 25.004 25.004 65.492 0 90.496s-65.492 25.002-90.496 0l-104.064-104.064v400.212c0 35.328-28.672 64-64 64s-64-28.672-64-64v-400.212l-104.064 104.106c-25.002 25.002-65.492 25.002-90.496 0-12.544-12.502-18.772-28.886-18.772-45.27s6.23-32.768 18.732-45.27l213.248-213.248c5.974-5.972 13.098-10.752 21.034-13.996z" />
<glyph unicode="&#x77;" d="M673.452-64h-664.236v733.38l332.118 290.62 332.118-290.62 0.002-733.38zM104.106 30.89h474.452v595.48l-237.226 207.58-237.226-207.58v-595.48zM450.854 552.788l-112.69 127.464-112.738-127.464z" horiz-adv-x="682" />
<glyph unicode="&#x78;" d="M276.48 256h471.040l-235.572 409.6z" />
<glyph unicode="&#x79;" d="M577 736l426-434q21-21 21-51t-21-51l-51-51q-21-21-51-21t-51 21l-338 338-338-338q-21-21-51-21t-51 21l-51 51q-21 21-21 51t21 51l428 434q32 32 64 32t64-32z" />
<glyph unicode="&#x7a;" d="M1414.096 756.176l-292.57-249.368-0.002 453.192h-1121.522v-1024h1121.522v506.344l292.57-249.32 0.002 563.152zM1024 33.524h-926.476v828.954h926.476v-828.954z" horiz-adv-x="1414" />
<glyph unicode="&#x7b;" d="M1015.814 792.72l-848.52-848.534-159.11 159.11 848.534 848.52zM1015.814 103.294l-159.094-159.11-848.534 848.534 159.11 159.094z" />
</font>
</defs>
</svg>
