<svg id="Layer_1" data-name="Layer 1" xmlns="http://www.w3.org/2000/svg" viewBox="0 0 300 300"><defs><style>.cls-1{fill:#fbf3f4}.cls-2{fill:#ce912d}.cls-3{fill:#fff}.cls-4{fill:#a3d29b}</style></defs><title>Holiday2016_GiftCurator_People</title><path class="cls-1" d="M-3.24-3.24h306.49v306.49H-3.24z"/><path class="cls-2" d="M150 232.35a82.37 82.37 0 0 1-70.41-125.09 2 2 0 1 1 3.41 2.08 78.38 78.38 0 0 0 104.59 109.43 2 2 0 0 1 1.92 3.51A82.45 82.45 0 0 1 150 232.35z"/><path class="cls-2" d="M122.65 186.72a1.79 1.79 0 0 1-.4 0 1.67 1.67 0 0 1-.37-.11 1.6 1.6 0 0 1-.34-.19 1.84 1.84 0 0 1-.31-.25 2 2 0 0 1-.58-1.41 1.76 1.76 0 0 1 0-.39 1.86 1.86 0 0 1 .11-.38 2.27 2.27 0 0 1 .18-.34 2.54 2.54 0 0 1 .25-.3 1.84 1.84 0 0 1 .31-.25 2.27 2.27 0 0 1 .34-.19 1.65 1.65 0 0 1 .38-.11 2.06 2.06 0 0 1 .78 0 1.57 1.57 0 0 1 .37.11 2.47 2.47 0 0 1 .35.19 1.43 1.43 0 0 1 .3.25 1.8 1.8 0 0 1 .25.3 2.28 2.28 0 0 1 .18.34 2.7 2.7 0 0 1 .12.38 1.7 1.7 0 0 1 0 .39 2 2 0 0 1-.59 1.41 1.77 1.77 0 0 1-.3.25 1.72 1.72 0 0 1-.35.19 1.52 1.52 0 0 1-.37.11 1.71 1.71 0 0 1-.31 0zm0 12.2a2.08 2.08 0 0 1-.77-.15 2.13 2.13 0 0 1-.34-.18 2.49 2.49 0 0 1-.31-.25 2.17 2.17 0 0 1-.43-.65 2 2 0 0 1-.15-.77 2.08 2.08 0 0 1 .15-.76 2.37 2.37 0 0 1 .18-.35 2.54 2.54 0 0 1 .25-.3 2.49 2.49 0 0 1 .31-.25 2.13 2.13 0 0 1 .34-.18 2.46 2.46 0 0 1 .38-.12 2.06 2.06 0 0 1 .78 0 2.43 2.43 0 0 1 .72.3 2.16 2.16 0 0 1 .55.55 2.38 2.38 0 0 1 .18.35 2.58 2.58 0 0 1 .12.37 1.7 1.7 0 0 1 0 .39 2 2 0 0 1-.15.77 2 2 0 0 1-.44.65 2.39 2.39 0 0 1-.3.25 2.32 2.32 0 0 1-.35.18 1.62 1.62 0 0 1-.37.11 1.71 1.71 0 0 1-.35.04zm0-6.1a1.85 1.85 0 0 1-.4 0 1.78 1.78 0 0 1-.37-.11 2.21 2.21 0 0 1-.34-.18 2.5 2.5 0 0 1-.31-.26 2 2 0 0 1-.58-1.41 1.76 1.76 0 0 1 0-.39 1.62 1.62 0 0 1 .11-.37 2.32 2.32 0 0 1 .18-.35 2.46 2.46 0 0 1 .25-.3 2.32 2.32 0 0 1 .31-.25 1.56 1.56 0 0 1 .34-.18 2.46 2.46 0 0 1 .38-.12 2.06 2.06 0 0 1 .78 0 2.34 2.34 0 0 1 .37.12 1.67 1.67 0 0 1 .35.18 1.72 1.72 0 0 1 .3.25 1.76 1.76 0 0 1 .25.3 2.32 2.32 0 0 1 .18.35 2.24 2.24 0 0 1 .12.37 1.7 1.7 0 0 1 0 .39 2 2 0 0 1-.59 1.41 1.64 1.64 0 0 1-.65.44 1.62 1.62 0 0 1-.37.11 1.77 1.77 0 0 1-.31 0zm0 12.18a2.77 2.77 0 0 1-.4 0 2.72 2.72 0 0 1-.37-.12 2.22 2.22 0 0 1-.34-.18 2.32 2.32 0 0 1-.31-.25 2 2 0 0 1-.58-1.41 1.85 1.85 0 0 1 0-.4 1.78 1.78 0 0 1 .11-.37 1.84 1.84 0 0 1 .18-.34 2.67 2.67 0 0 1 .25-.31l.31-.25a2.21 2.21 0 0 1 .34-.18 2.46 2.46 0 0 1 .38-.12 2.06 2.06 0 0 1 .78 0 2.34 2.34 0 0 1 .37.12 2.41 2.41 0 0 1 .35.18 2.46 2.46 0 0 1 .3.25 1.88 1.88 0 0 1 .25.31 1.84 1.84 0 0 1 .18.34 2.58 2.58 0 0 1 .12.37 1.79 1.79 0 0 1 0 .4 2 2 0 0 1-.59 1.41 2.24 2.24 0 0 1-.3.25 2.42 2.42 0 0 1-.35.18 2.34 2.34 0 0 1-.37.12 2.65 2.65 0 0 1-.31 0z"/><path class="cls-3" d="M104.07 189.66l9.92-11.37"/><path class="cls-2" d="M104.07 191.66a2 2 0 0 1-1.51-3.31l9.92-11.35a2 2 0 0 1 3 2.63l-9.9 11.37a2 2 0 0 1-1.51.66z"/><path class="cls-3" d="M100.21 172.25l7.9-.81"/><path class="cls-2" d="M100.21 174.25a2 2 0 0 1-.2-4l7.9-.81a2 2 0 0 1 .41 4l-7.9.81h-.21zm-5.47.55a2 2 0 0 1-2-2 1.76 1.76 0 0 1 0-.39 1.62 1.62 0 0 1 .11-.37 2.37 2.37 0 0 1 .18-.35 2.54 2.54 0 0 1 .25-.3 1.93 1.93 0 0 1 .31-.25A1.78 1.78 0 0 1 94 171a2.46 2.46 0 0 1 .38-.12 2 2 0 0 1 1.8.55 2 2 0 0 1 .59 1.41 2 2 0 0 1-2.03 1.96z"/><path class="cls-3" d="M108.81 160.01l1.18.65"/><path class="cls-2" d="M110 162.66a2 2 0 0 1-1-.24l-1.18-.64a2 2 0 1 1 1.92-3.51l1.18.64a2 2 0 0 1-.92 3.75z"/><path class="cls-3" d="M98.19 154.22l3.86 2.11"/><path class="cls-2" d="M102.05 158.33a2 2 0 0 1-1-.24L97.23 156a2 2 0 1 1 1.92-3.51l3.86 2.11a2 2 0 0 1-.96 3.73zm14.33-16.19a1.74 1.74 0 0 1-.4 0 2.65 2.65 0 0 1-.37-.11 2.37 2.37 0 0 1-.34-.19 1.83 1.83 0 0 1-.31-.25 1.8 1.8 0 0 1-.25-.3 2.38 2.38 0 0 1-.18-.35 2.2 2.2 0 0 1-.12-.37 1.92 1.92 0 0 1 0-.78 2.35 2.35 0 0 1 .12-.38 2.22 2.22 0 0 1 .18-.34 3.7 3.7 0 0 1 .25-.31 2.08 2.08 0 0 1 2.83 0 2.42 2.42 0 0 1 .25.31 2.21 2.21 0 0 1 .18.34 2.46 2.46 0 0 1 .12.38 2.64 2.64 0 0 1 0 .39 2.66 2.66 0 0 1 0 .39 2.3 2.3 0 0 1-.12.37 2.37 2.37 0 0 1-.18.35 1.85 1.85 0 0 1-.25.3 1.49 1.49 0 0 1-.31.25 1.87 1.87 0 0 1-.34.19 2.31 2.31 0 0 1-.37.11 1.7 1.7 0 0 1-.39 0z"/><path class="cls-3" d="M119.96 153.86l-1.89-8.12"/><path class="cls-2" d="M120 155.86a2 2 0 0 1-1.95-1.55l-1.89-8.12a2 2 0 0 1 3.9-.91l1.89 8.12a2 2 0 0 1-1.49 2.4 2 2 0 0 1-.46.06zm20.18-5.99a2 2 0 0 1-2-2 1.71 1.71 0 0 1 0-.39 2.33 2.33 0 0 1 .11-.38 1.87 1.87 0 0 1 .19-.34 1.49 1.49 0 0 1 .25-.31 2.45 2.45 0 0 1 .3-.25 2.29 2.29 0 0 1 .35-.18 2.34 2.34 0 0 1 .37-.12 2.05 2.05 0 0 1 .78 0 2.86 2.86 0 0 1 .38.12 2.22 2.22 0 0 1 .34.18 2.45 2.45 0 0 1 .3.25 1.49 1.49 0 0 1 .25.31 1.39 1.39 0 0 1 .19.34 2.33 2.33 0 0 1 .11.38 1.71 1.71 0 0 1 0 .39 2 2 0 0 1-1.92 2z"/><path class="cls-3" d="M134.47 154.88l2.78-3.41"/><path class="cls-2" d="M134.47 156.88a2 2 0 0 1-1.55-3.26l2.78-3.41a2 2 0 1 1 3.1 2.53l-2.8 3.4a2 2 0 0 1-1.53.74z"/><path class="cls-3" d="M137.52 187.4l-7.27-10.47"/><path class="cls-2" d="M137.52 189.4a2 2 0 0 1-1.65-.86l-7.26-10.48a2 2 0 0 1 3.29-2.28l7.26 10.48a2 2 0 0 1-1.64 3.14z"/><path class="cls-3" d="M143.28 170.42l-9.43-1.44"/><path class="cls-2" d="M143.28 172.42h-.3l-9.43-1.42a2 2 0 0 1 .6-4l9.43 1.44a2 2 0 0 1-.3 3.98z"/><path class="cls-4" d="M90.63 59.77l14.89 7.96-14.89 7.96-8.14 14.56-8.15-14.56-14.88-7.96 14.88-7.96 8.15-14.56 8.14 14.56z"/><path class="cls-4" d="M82.49 90.75a.5.5 0 0 1-.44-.26L74 76.06l-14.78-7.89a.5.5 0 0 1 0-.88L74 59.4 82.05 45a.52.52 0 0 1 .87 0L91 59.4l14.76 7.89a.5.5 0 0 1 0 .88L91 76.06l-8.08 14.43a.5.5 0 0 1-.43.26zm-22-23l14.06 7.52a.51.51 0 0 1 .2.2l7.71 13.78 7.71-13.78a.5.5 0 0 1 .2-.2l14.06-7.52-14.04-7.54a.5.5 0 0 1-.2-.2l-7.7-13.77L74.78 60a.51.51 0 0 1-.2.2zm174.75 98.06l7.86 4.21-7.86 4.2-4.3 7.69-4.3-7.69-7.86-4.2 7.86-4.21 4.3-7.68 4.3 7.68z"/><path class="cls-4" d="M230.94 182.41a.5.5 0 0 1-.44-.26l-4.23-7.56-7.73-4.13a.5.5 0 0 1 0-.88l7.73-4.13 4.23-7.56a.52.52 0 0 1 .87 0l4.23 7.56 7.73 4.13a.5.5 0 0 1 0 .88l-7.73 4.13-4.23 7.56a.5.5 0 0 1-.43.26zM219.84 170l7 3.76a.51.51 0 0 1 .2.2l3.86 6.91 3.9-6.87a.51.51 0 0 1 .2-.2l7-3.76-7-3.76a.51.51 0 0 1-.2-.2l-3.86-6.9-3.86 6.9a.51.51 0 0 1-.2.2z"/><circle class="cls-3" cx="97.65" cy="114.31" r="2.15"/><path class="cls-2" d="M97.65 118.45a4.15 4.15 0 1 1 4.15-4.15 4.15 4.15 0 0 1-4.15 4.15zm0-4.29a.15.15 0 0 0-.15.15c0 .16.29.16.29 0a.15.15 0 0 0-.14-.15z"/><circle class="cls-3" cx="175.1" cy="102.86" r="12.8"/><path class="cls-2" d="M175.1 117.66a14.8 14.8 0 1 1 14.8-14.8 14.81 14.81 0 0 1-14.8 14.8zm0-25.59a10.8 10.8 0 1 0 10.8 10.8 10.81 10.81 0 0 0-10.8-10.8zm0 43.93a1.79 1.79 0 0 1-.4 0 2.53 2.53 0 0 1-.37-.11 1.6 1.6 0 0 1-.34-.19 1.8 1.8 0 0 1-.31-.25 2 2 0 0 1-.58-1.41 1.7 1.7 0 0 1 0-.39 1.68 1.68 0 0 1 .11-.38 2.18 2.18 0 0 1 .18-.34 2.54 2.54 0 0 1 .25-.3 1.8 1.8 0 0 1 .31-.25 1.74 1.74 0 0 1 .72-.3 1.73 1.73 0 0 1 .78 0 1.66 1.66 0 0 1 .37.11 1.7 1.7 0 0 1 .35.19 1.46 1.46 0 0 1 .3.25 1.85 1.85 0 0 1 .25.3 2.18 2.18 0 0 1 .18.34 2.33 2.33 0 0 1 .12.38 2.51 2.51 0 0 1 0 .39 2 2 0 0 1-.59 1.41 1.77 1.77 0 0 1-.3.25 1.7 1.7 0 0 1-.35.19 2.18 2.18 0 0 1-.37.11 1.72 1.72 0 0 1-.31 0zm0 15a2.77 2.77 0 0 1-.4 0 2.66 2.66 0 0 1-.37-.11 2.27 2.27 0 0 1-.34-.19 1.8 1.8 0 0 1-.31-.25 2.55 2.55 0 0 1-.25-.3 2.23 2.23 0 0 1-.18-.35 1.48 1.48 0 0 1-.11-.37 2.09 2.09 0 0 1 .11-1.16 1.81 1.81 0 0 1 .18-.34 2.66 2.66 0 0 1 .25-.31 2.08 2.08 0 0 1 2.83 0 1.93 1.93 0 0 1 .25.31 1.81 1.81 0 0 1 .18.34 2.36 2.36 0 0 1 .12.38 1.92 1.92 0 0 1 0 .78 2 2 0 0 1-.11.37 2.37 2.37 0 0 1-.19.35 1.46 1.46 0 0 1-.25.3 1.77 1.77 0 0 1-.3.25 2.43 2.43 0 0 1-.35.19 2.27 2.27 0 0 1-.37.11 2.66 2.66 0 0 1-.39 0zm0 15a2.75 2.75 0 0 1-.4 0 2.72 2.72 0 0 1-.37-.12 2.14 2.14 0 0 1-.34-.18 2.26 2.26 0 0 1-.31-.25 2 2 0 0 1-.58-1.42 1.7 1.7 0 0 1 0-.39 2 2 0 0 1 .29-.71 2.67 2.67 0 0 1 .25-.31l.31-.25a2.21 2.21 0 0 1 .34-.18 2.46 2.46 0 0 1 .38-.12 2.06 2.06 0 0 1 .78 0 2.71 2.71 0 0 1 .37.12 2.37 2.37 0 0 1 .35.18 2.54 2.54 0 0 1 .3.25 1.93 1.93 0 0 1 .25.31 1.78 1.78 0 0 1 .18.34 2.59 2.59 0 0 1 .12.37 2.51 2.51 0 0 1 0 .39 2 2 0 0 1-.59 1.42 2.24 2.24 0 0 1-.3.25 2.43 2.43 0 0 1-.72.3zm0 15a2.62 2.62 0 0 1-.4 0 2.47 2.47 0 0 1-.37-.12 2.13 2.13 0 0 1-.34-.18l-.31-.25a2 2 0 0 1-.58-1.42 1.7 1.7 0 0 1 0-.39 1.62 1.62 0 0 1 .11-.37 2.28 2.28 0 0 1 .18-.35 2.54 2.54 0 0 1 .25-.3 2.06 2.06 0 0 1 2.83 0 1.85 1.85 0 0 1 .25.3 2.28 2.28 0 0 1 .18.35 2.25 2.25 0 0 1 .12.37 2.51 2.51 0 0 1 0 .39 2 2 0 0 1-.15.77 2 2 0 0 1-.44.65 3.7 3.7 0 0 1-.3.25 2.28 2.28 0 0 1-.35.18 2.12 2.12 0 0 1-.37.12 2.52 2.52 0 0 1-.31 0zm0 15a2 2 0 0 1-2-2 1.72 1.72 0 0 1 0-.39 1.7 1.7 0 0 1 .11-.38 2.17 2.17 0 0 1 .18-.34 2.54 2.54 0 0 1 .25-.3 2.06 2.06 0 0 1 2.83 0 1.85 1.85 0 0 1 .25.3 2.17 2.17 0 0 1 .18.34 2.36 2.36 0 0 1 .12.38 2.54 2.54 0 0 1 0 .39 2 2 0 0 1-.59 1.41 2 2 0 0 1-1.33.59zm0-67.48a2.64 2.64 0 0 1-.4 0 2.47 2.47 0 0 1-.37-.12 2.13 2.13 0 0 1-.34-.18 2.42 2.42 0 0 1-.31-.25 2 2 0 0 1-.43-.65 2 2 0 0 1-.15-.76 2 2 0 0 1 .33-1.11 2.59 2.59 0 0 1 .25-.31l.31-.25a2.21 2.21 0 0 1 .34-.18 2.46 2.46 0 0 1 .38-.12 2.06 2.06 0 0 1 .78 0 2.71 2.71 0 0 1 .37.12 2.37 2.37 0 0 1 .35.18 2.54 2.54 0 0 1 .3.25 1.89 1.89 0 0 1 .25.31 1.78 1.78 0 0 1 .18.34 2.59 2.59 0 0 1 .12.37 2.64 2.64 0 0 1 0 .4 2 2 0 0 1-.15.76 2 2 0 0 1-.44.65 2.39 2.39 0 0 1-.3.25 2.28 2.28 0 0 1-.35.18 2.12 2.12 0 0 1-.37.12 2.54 2.54 0 0 1-.35 0zm0 14.99a2.64 2.64 0 0 1-.4 0 2.72 2.72 0 0 1-.37-.12 2.13 2.13 0 0 1-.34-.18 2.42 2.42 0 0 1-.31-.25 2 2 0 0 1-.58-1.42 1.72 1.72 0 0 1 0-.39 1.59 1.59 0 0 1 .11-.37 2.28 2.28 0 0 1 .18-.35 2.54 2.54 0 0 1 .25-.3 2.08 2.08 0 0 1 2.83 0 1.85 1.85 0 0 1 .25.3 2.28 2.28 0 0 1 .18.35 2.2 2.2 0 0 1 .12.37 2.54 2.54 0 0 1 0 .39 2 2 0 0 1-.15.77 2 2 0 0 1-.44.65 2.39 2.39 0 0 1-.3.25 2.46 2.46 0 0 1-.72.3 2.54 2.54 0 0 1-.31 0zm0 14.98a1.85 1.85 0 0 1-.4 0 1.78 1.78 0 0 1-.37-.11 2.21 2.21 0 0 1-.34-.18l-.31-.25a2 2 0 0 1-.58-1.42 2 2 0 0 1 .58-1.41 2.06 2.06 0 0 1 2.83 0 2 2 0 0 1 0 2.83 3.7 3.7 0 0 1-.3.25 2.37 2.37 0 0 1-.35.18 1.59 1.59 0 0 1-.37.11 1.77 1.77 0 0 1-.39 0zm0 14.99a2.64 2.64 0 0 1-.4 0 2.53 2.53 0 0 1-.37-.11 1.6 1.6 0 0 1-.34-.19 1.75 1.75 0 0 1-.31-.25 2.46 2.46 0 0 1-.25-.3 2.32 2.32 0 0 1-.18-.35 1.62 1.62 0 0 1-.11-.37 2.09 2.09 0 0 1 .11-1.16 2.13 2.13 0 0 1 .18-.34 3.86 3.86 0 0 1 .25-.31 2.34 2.34 0 0 1 .31-.24 1.64 1.64 0 0 1 .34-.19 1.7 1.7 0 0 1 .38-.11 1.73 1.73 0 0 1 .78 0 1.77 1.77 0 0 1 .37.11 1.75 1.75 0 0 1 .35.19 1.8 1.8 0 0 1 .3.24 2.49 2.49 0 0 1 .25.31 2.13 2.13 0 0 1 .18.34 2.36 2.36 0 0 1 .12.38 1.92 1.92 0 0 1 0 .78 2.31 2.31 0 0 1-.11.37 2.48 2.48 0 0 1-.19.35 1.43 1.43 0 0 1-.25.3 1.73 1.73 0 0 1-.3.25 1.7 1.7 0 0 1-.35.19 2.18 2.18 0 0 1-.37.11 2.54 2.54 0 0 1-.39 0zm0 14.99a2.64 2.64 0 0 1-.4 0l-.37-.11a2.18 2.18 0 0 1-.34-.19 1.8 1.8 0 0 1-.31-.25 2 2 0 0 1-.58-1.41 2 2 0 0 1 .58-1.42 2.08 2.08 0 0 1 2.83 0 2 2 0 0 1 .59 1.42 2 2 0 0 1-.59 1.41 1.77 1.77 0 0 1-.3.25 2.34 2.34 0 0 1-.35.19l-.37.11a2.54 2.54 0 0 1-.39 0zm0 14.98a1.85 1.85 0 0 1-.4 0 1.78 1.78 0 0 1-.37-.11 2.21 2.21 0 0 1-.34-.18 2.42 2.42 0 0 1-.31-.25 2 2 0 0 1-.58-1.42 1.71 1.71 0 0 1 0-.39 1.78 1.78 0 0 1 .11-.37 2.27 2.27 0 0 1 .18-.35 2.46 2.46 0 0 1 .25-.3 2.34 2.34 0 0 1 .31-.25 2.22 2.22 0 0 1 .34-.18 2.35 2.35 0 0 1 .38-.12 2 2 0 0 1 .78 0 2.57 2.57 0 0 1 .37.12 2.38 2.38 0 0 1 .35.18 2.16 2.16 0 0 1 .55.55 2.27 2.27 0 0 1 .18.35 2.59 2.59 0 0 1 .12.37 2.51 2.51 0 0 1 0 .39 2 2 0 0 1-.59 1.42 1.77 1.77 0 0 1-.65.43 1.59 1.59 0 0 1-.37.11 1.77 1.77 0 0 1-.31 0zm0-149.78a2 2 0 0 1-2-2v-3.1a2 2 0 0 1 4 0v3.11a2 2 0 0 1-2 1.99zm0 23.49a2 2 0 0 1-2-2V57a2 2 0 1 1 4 0v18.16a2 2 0 0 1-2 2z"/><path class="cls-3" d="M189.15 69.1l7.96-16.76"/><path class="cls-2" d="M189.14 71.1a2 2 0 0 1-1.81-2.86l8-16.76a2 2 0 1 1 3.61 1.72L191 70a2 2 0 0 1-1.86 1.1z"/><path class="cls-3" d="M183.87 80.21l2.4-5.05"/><path class="cls-2" d="M183.87 82.21a2 2 0 0 1-1.81-2.86l2.4-5.05a2 2 0 1 1 3.62 1.7l-2.4 5.05a2 2 0 0 1-1.81 1.16zm26.25-12.48a2 2 0 0 1-.76-.15 2 2 0 0 1-.65-.44 2.07 2.07 0 0 1-.44-.65 2 2 0 0 1-.15-.76 2 2 0 0 1 .59-1.42 2.08 2.08 0 0 1 2.83 0 2 2 0 0 1 .59 1.42 2 2 0 0 1-.16.76 1.89 1.89 0 0 1-.43.65 2 2 0 0 1-1.42.59z"/><path class="cls-3" d="M195.61 82.24l10.64-10.63"/><path class="cls-2" d="M195.61 84.24a2 2 0 0 1-1.41-3.41l10.64-10.64a2 2 0 0 1 2.82 2.81L197 83.66a2 2 0 0 1-1.39.58z"/><path class="cls-3" d="M207.68 90.99l10.61-3.87"/><path class="cls-2" d="M207.68 93a2 2 0 0 1-.69-3.88l10.61-3.88A2 2 0 1 1 219 89l-10.61 3.88a2 2 0 0 1-.71.12z"/><path class="cls-3" d="M197.76 94.62l4.6-1.69"/><path class="cls-2" d="M197.76 96.62a2 2 0 0 1-.69-3.88l4.61-1.68a2 2 0 1 1 1.37 3.76l-4.61 1.68a2 2 0 0 1-.68.12zm32.24 7.57h-12.6a2 2 0 0 1 0-4H230a2 2 0 0 1 0 4zm-18.42 0h-12.45a2 2 0 0 1 0-4h12.46a2 2 0 0 1-.01 4zm12.29 21.72a2 2 0 0 1-.76-.15 1.9 1.9 0 0 1-.65-.44 1.37 1.37 0 0 1-.25-.3 1.67 1.67 0 0 1-.19-.35 2 2 0 0 1-.11-.37 1.92 1.92 0 0 1 0-.78 2.33 2.33 0 0 1 .11-.38 2.24 2.24 0 0 1 .19-.34 1.37 1.37 0 0 1 .25-.3 2 2 0 0 1 1.8-.55 1.64 1.64 0 0 1 .38.11 1.6 1.6 0 0 1 .34.19 2.16 2.16 0 0 1 .55.55 1.63 1.63 0 0 1 .19.34 1.7 1.7 0 0 1 .11.38 1.92 1.92 0 0 1 0 .78 1.62 1.62 0 0 1-.11.37 1.67 1.67 0 0 1-.19.35 2.16 2.16 0 0 1-.55.55 1.6 1.6 0 0 1-.34.19 2.43 2.43 0 0 1-.38.11 1.7 1.7 0 0 1-.39.04z"/><path class="cls-3" d="M199.13 112.49l19.46 8.98"/><path class="cls-2" d="M218.59 123.47a2 2 0 0 1-.84-.18l-19.46-9a2 2 0 0 1 1.68-3.63l19.46 9a2 2 0 0 1-.84 3.81z"/><path class="cls-3" d="M203.13 131.74l9.92 10.39"/><path class="cls-2" d="M213.05 144.13a2 2 0 0 1-1.45-.62l-9.92-10.39a2 2 0 0 1 2.89-2.76l9.92 10.39a2 2 0 0 1-1.44 3.38z"/><path class="cls-3" d="M191.68 119.74l6.47 6.78"/><path class="cls-2" d="M198.15 128.52a2 2 0 0 1-1.45-.62l-6.47-6.78a2 2 0 0 1 2.89-2.76l6.47 6.78a2 2 0 0 1-1.44 3.38z"/><path class="cls-3" d="M187.24 135.74l3.96 11.56"/><path class="cls-2" d="M191.2 149.3a2 2 0 0 1-1.89-1.35l-4-11.56a2 2 0 1 1 3.78-1.3l4 11.56a2 2 0 0 1-1.89 2.65z"/><path class="cls-3" d="M183.63 125.22l1.44 4.19"/><path class="cls-2" d="M185.07 131.41a2 2 0 0 1-1.89-1.35l-1.44-4.19a2 2 0 1 1 3.78-1.3l1.44 4.19a2 2 0 0 1-1.89 2.65z"/><path class="cls-3" d="M163.81 70.9l-6.89-20"/><path class="cls-2" d="M163.81 72.9a2 2 0 0 1-1.89-1.35l-6.9-20a2 2 0 1 1 3.78-1.3l6.9 20a2 2 0 0 1-1.89 2.65zm2.34 6.79a2 2 0 0 1-1.41-.59 2 2 0 0 1-.59-1.41 2.64 2.64 0 0 1 0-.4 2.72 2.72 0 0 1 .12-.37 2.29 2.29 0 0 1 .18-.35 1.76 1.76 0 0 1 .25-.3 2 2 0 0 1 1.8-.55 2.46 2.46 0 0 1 .38.12 2.26 2.26 0 0 1 .34.18 2.41 2.41 0 0 1 .31.25 2.37 2.37 0 0 1 .25.3 2.29 2.29 0 0 1 .18.35 1.72 1.72 0 0 1 .11.37 1.73 1.73 0 0 1 0 .4 2 2 0 0 1-.58 1.41 2.33 2.33 0 0 1-.31.25 2.27 2.27 0 0 1-.34.18 2.58 2.58 0 0 1-.37.12 2.52 2.52 0 0 1-.32.04z"/><path class="cls-3" d="M147.29 74.34l-9.56-10.94"/><path class="cls-2" d="M147.29 76.33a2 2 0 0 1-1.51-.68l-9.56-10.94a2 2 0 0 1 3-2.63L148.79 73a2 2 0 0 1-1.5 3.33z"/><path class="cls-3" d="M155.07 83.24l-3.03-3.47"/><path class="cls-2" d="M155.07 85.24a2 2 0 0 1-1.51-.68l-3-3.47a2 2 0 0 1 3-2.63l3 3.47a2 2 0 0 1-1.49 3.31z"/><path class="cls-3" d="M138.91 86.89l-13.67-5.68"/><path class="cls-2" d="M138.91 88.89a2 2 0 0 1-.77-.15l-13.67-5.68a2 2 0 0 1 1.53-3.7L139.68 85a2 2 0 0 1-.77 3.89z"/><path class="cls-3" d="M153.66 93.02l-9.55-3.96"/><path class="cls-2" d="M153.66 95a2 2 0 0 1-.77-.15l-9.55-4a2 2 0 1 1 1.54-3.69l9.55 4a2 2 0 0 1-.77 3.84zm-17.5 9.86h-8.45a2 2 0 0 1 0-4h8.45a2 2 0 0 1 0 4zm6.35 0a1.65 1.65 0 0 1-.39 0 1.63 1.63 0 0 1-.38-.11 2.27 2.27 0 0 1-.34-.18 2.26 2.26 0 0 1-.56-.56 2.17 2.17 0 0 1-.18-.34 1.6 1.6 0 0 1-.11-.38 1.65 1.65 0 0 1 0-.39 2 2 0 0 1 .58-1.41 2.31 2.31 0 0 1 .31-.25 2.25 2.25 0 0 1 .34-.19 2.4 2.4 0 0 1 .38-.11 2 2 0 0 1 1.8.55 1.81 1.81 0 0 1 .25.3 2.28 2.28 0 0 1 .19.35 2.22 2.22 0 0 1 .11.37 1.7 1.7 0 0 1 0 .39 2 2 0 0 1-.59 1.41 1.87 1.87 0 0 1-.3.26 2.37 2.37 0 0 1-.35.18 1.57 1.57 0 0 1-.37.11 1.7 1.7 0 0 1-.39 0z"/><path class="cls-3" d="M143.09 113.94l-6.36 2.33"/><path class="cls-2" d="M136.73 118.27a2 2 0 0 1-.69-3.88l6.36-2.32a2 2 0 0 1 1.37 3.76l-6.36 2.32a2 2 0 0 1-.68.12z"/><path class="cls-3" d="M152.89 110.36l-4 1.47"/><path class="cls-2" d="M148.89 113.83a2 2 0 0 1-.69-3.88l4-1.46a2 2 0 0 1 1.37 3.76l-4 1.46a2 2 0 0 1-.68.12z"/><path class="cls-3" d="M148.41 129.44l-8.25 7.94"/><path class="cls-2" d="M140.16 139.38a2 2 0 0 1-1.39-3.44L147 128a2 2 0 0 1 2.77 2.88l-8.25 7.94a2 2 0 0 1-1.36.56z"/><path class="cls-3" d="M157.6 120.59l-4.2 4.05"/><path class="cls-2" d="M153.4 126.64a2 2 0 0 1-1.4-3.44l4.21-4A2 2 0 1 1 159 122l-4.21 4a2 2 0 0 1-1.39.64z"/><path class="cls-3" d="M157.47 143.52l-2.96 7.19"/><path class="cls-2" d="M154.51 152.71a2 2 0 0 1-1.85-2.76l3-7.19a2 2 0 1 1 3.7 1.52l-3 7.19a2 2 0 0 1-1.85 1.24z"/><path class="cls-3" d="M165.14 124.87l-4.9 11.91"/><path class="cls-2" d="M160.24 138.78a2 2 0 0 1-1.85-2.76l4.9-11.91a2 2 0 1 1 3.7 1.52l-4.9 11.91a2 2 0 0 1-1.85 1.24z"/><circle class="cls-3" cx="121.59" cy="167.34" r="2.15"/><path class="cls-2" d="M121.59 171.48a4.15 4.15 0 1 1 4.15-4.15 4.15 4.15 0 0 1-4.15 4.15zm0-4.29a.15.15 0 0 0-.15.15c0 .16.29.16.29 0a.15.15 0 0 0-.14-.15z"/><path class="cls-3" d="M200.17 202.88l4.75 1.36"/><path class="cls-2" d="M204.92 206.25a2 2 0 0 1-.55-.08l-4.75-1.36a2 2 0 0 1 1.1-3.85l4.75 1.36a2 2 0 0 1-.55 3.93z"/><path class="cls-3" d="M215.33 207.23l4.75 1.36"/><path class="cls-2" d="M220.08 210.59a2 2 0 0 1-.55-.08l-4.75-1.36a2 2 0 0 1 1.1-3.85l4.75 1.36a2 2 0 0 1-.55 3.93z"/><path class="cls-3" d="M213.12 194.63l-1.36 4.75"/><path class="cls-2" d="M211.76 201.38a2 2 0 0 1-1.92-2.55l1.36-4.75a2 2 0 1 1 3.85 1.1l-1.36 4.75a2 2 0 0 1-1.93 1.45z"/><path class="cls-3" d="M208.42 211.03l-1.36 4.74"/><path class="cls-2" d="M207.06 217.77a2 2 0 0 1-1.92-2.55l1.36-4.75a2 2 0 0 1 3.85 1.1l-1.35 4.76a2 2 0 0 1-1.94 1.44z"/></svg>