<svg id="Layer_1" data-name="Layer 1" xmlns="http://www.w3.org/2000/svg" viewBox="0 0 300 300"><defs><style>.cls-1{fill:#fbf3f4}.cls-2{fill:#ce912d}.cls-3{fill:#fff}.cls-4{fill:red}</style></defs><title>Holiday2016_GiftCurator_People</title><path class="cls-1" d="M-3.24-3.24h306.49v306.49H-3.24z"/><path class="cls-2" d="M149 232.35a82 82 0 0 1-30.22-5.72 2 2 0 0 1 1.47-3.72 78.44 78.44 0 0 0 104.44-52.57 2 2 0 1 1 3.86 1A82.45 82.45 0 0 1 149 232.35zm-76.66-56.19a2 2 0 0 1-1.91-1.4 82.4 82.4 0 0 1 114.29-99 2 2 0 1 1-1.74 3.6 77.62 77.62 0 0 0-34-7.73 78.42 78.42 0 0 0-74.73 101.93 2 2 0 0 1-1.91 2.6z"/><path class="cls-3" d="M230.86 64.4l13.98 7.47-13.98 7.48-7.65 13.67-7.64-13.67-13.98-7.48 13.98-7.47 7.64-13.67 7.65 13.67z"/><path class="cls-2" d="M223.21 95a2 2 0 0 1-1.75-1l-7.36-13.16-13.46-7.2a2 2 0 0 1 0-3.53l13.46-7.2 7.36-13.16a2 2 0 0 1 1.75-1 2 2 0 0 1 1.75 1l7.36 13.16 13.46 7.2a2 2 0 0 1 0 3.53l-13.46 7.2L225 94a2 2 0 0 1-1.79 1zm-17.38-23.13l10.68 5.71a2 2 0 0 1 .8.79l5.9 10.55 5.9-10.55a2 2 0 0 1 .8-.79l10.68-5.71-10.68-5.71a2 2 0 0 1-.8-.79l-5.9-10.55-5.9 10.55a2 2 0 0 1-.8.79z"/><path class="cls-3" d="M250 101.03l6.11 3.27-6.11 3.27-3.35 5.98-3.34-5.98-6.12-3.27 6.12-3.27 3.34-5.98 3.35 5.98z"/><path class="cls-2" d="M246.65 115.55a2 2 0 0 1-1.75-1l-3.06-5.47-5.6-3a2 2 0 0 1 0-3.53l5.6-3 3.06-5.47a2 2 0 0 1 3.49 0l3.06 5.47 5.6 3a2 2 0 0 1 0 3.53l-5.6 3-3.06 5.47a2 2 0 0 1-1.74 1zm-5.22-11.25l2.82 1.51a2 2 0 0 1 .8.79l1.6 2.86 1.6-2.86a2 2 0 0 1 .8-.79l2.82-1.51-2.82-1.51a2 2 0 0 1-.8-.79l-1.6-2.86L245 102a2 2 0 0 1-.8.79z"/><path class="cls-3" d="M235.47 127.23l9.37 5.01-9.37 5-5.12 9.16-5.12-9.16-9.36-5 9.36-5.01 5.12-9.16 5.12 9.16z"/><path class="cls-2" d="M230.35 148.4a2 2 0 0 1-1.75-1l-4.84-8.64-8.84-4.76a2 2 0 0 1 0-3.53l8.85-4.73 4.84-8.65a2 2 0 0 1 3.49 0l4.84 8.65 8.85 4.73a2 2 0 0 1 0 3.53l-8.85 4.73-4.84 8.64a2 2 0 0 1-1.75 1.03zm-10.24-16.16l6.07 3.24a2 2 0 0 1 .8.79l3.38 6 3.38-6a2 2 0 0 1 .8-.79l6.07-3.24-6.08-3.24a2 2 0 0 1-.8-.79l-3.38-6-3.38 6a2 2 0 0 1-.8.79z"/><circle class="cls-3" cx="194.44" cy="142.65" r="5.72"/><path class="cls-2" d="M194.44 150.37a7.72 7.72 0 1 1 7.72-7.72 7.73 7.73 0 0 1-7.72 7.72zm0-11.43a3.72 3.72 0 1 0 3.72 3.72 3.72 3.72 0 0 0-3.72-3.72z"/><path class="cls-4" d="M107.41 109.5a8.32 8.32 0 0 0-4.62 8.72 8.3 8.3 0 0 0-13.57 9.28c4.25 8.88 22.57 9.52 22.57 9.52s11-14.66 6.74-23.55a8.35 8.35 0 0 0-11.12-3.97z"/><path class="cls-4" d="M111.79 137.52c-.76 0-18.67-.75-23-9.81a8.86 8.86 0 0 1 4.11-11.82 8.77 8.77 0 0 1 9.3 1.11 8.77 8.77 0 0 1 5-7.94 8.86 8.86 0 0 1 11.8 4.2c4.33 9.05-6.33 23.45-6.79 24.06a.5.5 0 0 1-.42.2zM96.68 116a7.77 7.77 0 0 0-3.36.77 7.86 7.86 0 0 0-3.64 10.49c3.8 7.94 19.63 9.1 21.87 9.22 1.31-1.82 10.33-14.88 6.53-22.82a7.86 7.86 0 0 0-10.45-3.75 7.79 7.79 0 0 0-4.34 8.2.5.5 0 0 1-.86.41 7.84 7.84 0 0 0-5.75-2.52z"/><circle class="cls-3" cx="120.67" cy="178.85" r="22.17"/><path class="cls-2" d="M120.67 203a24.17 24.17 0 1 1 24.17-24.17A24.2 24.2 0 0 1 120.67 203zm0-44.34a20.17 20.17 0 1 0 20.17 20.17 20.19 20.19 0 0 0-20.17-20.15z"/><circle class="cls-3" cx="171.86" cy="178.85" r="22.17"/><path class="cls-2" d="M171.86 203A24.17 24.17 0 1 1 196 178.85 24.2 24.2 0 0 1 171.86 203zm0-44.34A20.17 20.17 0 1 0 192 178.85a20.19 20.19 0 0 0-20.14-20.17z"/><path class="cls-3" d="M56.03 234.41l15.09-11.26"/><path class="cls-2" d="M56 236.41a2 2 0 0 1-1.2-3.6l15.09-11.26a2 2 0 1 1 2.39 3.21L57.22 236a2 2 0 0 1-1.22.41z"/><path class="cls-3" d="M46.85 203.28l18.75 1.78"/><path class="cls-2" d="M65.6 207.06h-.19l-18.75-1.78a2 2 0 1 1 .38-4l18.75 1.78a2 2 0 0 1-.19 4z"/><path class="cls-3" d="M82.16 252.66l4.75-18.22"/><path class="cls-2" d="M82.17 254.66a2 2 0 0 1-1.94-2.5L85 233.93a2 2 0 1 1 3.87 1l-4.77 18.23a2 2 0 0 1-1.93 1.5z"/><path class="cls-3" d="M109.88 186.4a14.63 14.63 0 0 1 6.54-19.63"/><path class="cls-2" d="M109.88 188.4a2 2 0 0 1-1.79-1.11 16.65 16.65 0 0 1 7.44-22.29 2 2 0 1 1 1.79 3.58 12.64 12.64 0 0 0-5.65 16.94 2 2 0 0 1-1.79 2.88z"/><path class="cls-3" d="M161.07 186.4a14.63 14.63 0 0 1 6.54-19.63"/><path class="cls-2" d="M161.07 188.4a2 2 0 0 1-1.79-1.11 16.63 16.63 0 0 1 7.44-22.29 2 2 0 0 1 1.79 3.58 12.63 12.63 0 0 0-5.65 16.94 2 2 0 0 1-1.79 2.88zm9.7-29.72a2 2 0 0 1-2-1.77c-3.5-29.76-33.82-58-34.12-58.3a2 2 0 1 1 2.71-2.94c1.29 1.19 31.71 29.53 35.38 60.77a2 2 0 0 1-1.75 2.22h-.24z"/><path class="cls-2" d="M125.81 159.29a2 2 0 0 1-1.09-3.68c.28-.18 28.36-18.75 23-42.89a2 2 0 0 1 3.91-.87c2.48 11.18-1.05 22.9-10.21 33.89A72.14 72.14 0 0 1 126.9 159a2 2 0 0 1-1.09.29z"/><path class="cls-3" d="M183.89 96.33s-25.66-6.87-34.26 14.78c0-.01 24.16 10.62 34.26-14.78z"/><path class="cls-2" d="M161 115.31a33.07 33.07 0 0 1-12.21-2.38 2 2 0 0 1-1.05-2.57c9.15-23 36.36-16 36.64-16a2 2 0 0 1 1.34 2.67c-3.25 8.17-8.23 13.68-14.82 16.38a26 26 0 0 1-9.9 1.9zm-8.71-5.37c3.3 1 10.39 2.56 17.11-.21 4.94-2 8.84-6 11.63-11.93a38.26 38.26 0 0 0-10.94-.21c-8.34 1.14-14.32 5.29-17.77 12.35z"/><path class="cls-3" d="M231.64 234.55l-16.86 12.74"/><path class="cls-2" d="M214.79 249.79a2.5 2.5 0 0 1-1.51-4.5l16.86-12.74a2.5 2.5 0 1 1 3 4l-16.86 12.74a2.49 2.49 0 0 1-1.49.5z"/><path class="cls-3" d="M229.58 249.35l-12.74-16.86"/><path class="cls-2" d="M229.58 251.85a2.5 2.5 0 0 1-2-1L214.85 234a2.5 2.5 0 0 1 4-3l12.74 16.86a2.5 2.5 0 0 1-2.01 3.99z"/><path class="cls-3" d="M233.68 242.38l-20.93-2.92"/><path class="cls-2" d="M233.68 244.88h-.35l-20.93-2.92a2.5 2.5 0 1 1 .69-5L234 239.9a2.5 2.5 0 0 1-.32 4.98z"/><path class="cls-3" d="M221.76 251.39l2.91-20.93"/><path class="cls-2" d="M221.76 253.88h-.35a2.5 2.5 0 0 1-2.13-2.82l2.92-20.93a2.5 2.5 0 0 1 5 .69l-2.92 20.93a2.5 2.5 0 0 1-2.52 2.13z"/><path class="cls-3" d="M69.96 74.3l.7-8.32"/><path class="cls-2" d="M70 76.3h-.21A2 2 0 0 1 68 74.13l.7-8.32a2 2 0 0 1 4 .34l-.7 8.32a2 2 0 0 1-2 1.83z"/><path class="cls-3" d="M70 73.82l8.06-2.4"/><path class="cls-2" d="M70 75.82a2 2 0 0 1-.57-3.92l8.06-2.41a2 2 0 1 1 1.14 3.83l-8.06 2.41a2 2 0 0 1-.57.09z"/><path class="cls-3" d="M70.07 74.43l5.8 6.88"/><path class="cls-2" d="M75.87 83.31a2 2 0 0 1-1.53-.71l-5.8-6.87a2 2 0 1 1 3.06-2.58L77.4 80a2 2 0 0 1-1.53 3.31z"/><path class="cls-3" d="M69.91 74.82l-6.05 5.71"/><path class="cls-2" d="M63.86 82.53a2 2 0 0 1-1.37-3.46l6.06-5.7a2 2 0 0 1 2.74 2.91L65.23 82a2 2 0 0 1-1.37.53z"/><path class="cls-3" d="M70 73.82l-7.07-3.51"/><path class="cls-2" d="M70 75.82a2 2 0 0 1-.89-.21L62 72.1a2 2 0 0 1 1.78-3.58L70.89 72a2 2 0 0 1-.89 3.82z"/><circle class="cls-3" cx="141.69" cy="50.73" r="2.34"/><path class="cls-2" d="M141.69 55.07a4.34 4.34 0 1 1 4.31-4.34 4.34 4.34 0 0 1-4.31 4.34zm0-4.68a.34.34 0 1 0 .34.34.34.34 0 0 0-.34-.34z"/><circle class="cls-3" cx="188.72" cy="245.6" r="2.34"/><path class="cls-2" d="M188.72 250.44a4.84 4.84 0 1 1 4.84-4.84 4.84 4.84 0 0 1-4.84 4.84zm0-5a.16.16 0 0 0-.16.16c0 .18.32.18.32 0a.16.16 0 0 0-.16-.16z"/></svg>