<svg id="Layer_1" data-name="Layer 1" xmlns="http://www.w3.org/2000/svg" viewBox="0 0 300 300"><defs><style>.cls-1{fill:#fbf3f4}.cls-2{fill:#ffd2d2}.cls-3{fill:#026664}.cls-4{fill:#a3d29b}.cls-5{fill:#fbcb14}.cls-6{fill:#ff0bd1}.cls-7{fill:red}.cls-8{fill:#ff661a}</style></defs><title>Holiday2016_GiftCurator_People</title><path class="cls-1" d="M-3.24-3.24h306.49v306.49H-3.24z"/><circle class="cls-2" cx="150" cy="150" r="80.35"/><path class="cls-2" d="M150 232.85A82.85 82.85 0 1 1 232.85 150 82.95 82.95 0 0 1 150 232.85zm0-160.71A77.85 77.85 0 1 0 227.85 150 77.94 77.94 0 0 0 150 72.15z"/><path class="cls-3" d="M122.65 187.22a2.48 2.48 0 0 1-1.39-.42 2.38 2.38 0 0 1-.38-.31 2.51 2.51 0 0 1-.73-1.77 2 2 0 0 1 .05-.49 2.45 2.45 0 0 1 .14-.47 2.5 2.5 0 0 1 .23-.43 2.73 2.73 0 0 1 .31-.38 2.34 2.34 0 0 1 .38-.31 2.21 2.21 0 0 1 .43-.23 2.54 2.54 0 0 1 .47-.14 2.33 2.33 0 0 1 1 0 2.64 2.64 0 0 1 .46.14 2.18 2.18 0 0 1 .43.23 2.3 2.3 0 0 1 .38.31 3.76 3.76 0 0 1 .32.38 3.56 3.56 0 0 1 .23.43 2.6 2.6 0 0 1 .14.47 2.69 2.69 0 0 1 0 .49 2.52 2.52 0 0 1-.74 1.77 2.35 2.35 0 0 1-.38.31 2.24 2.24 0 0 1-.43.23 2.72 2.72 0 0 1-.46.14 2.78 2.78 0 0 1-.46.05zm0 12.2a2 2 0 0 1-.49 0 2.45 2.45 0 0 1-.9-.37 1.92 1.92 0 0 1-.38-.31 2.49 2.49 0 0 1-.73-1.77 2 2 0 0 1 .05-.48 2.26 2.26 0 0 1 .14-.47 2.18 2.18 0 0 1 .23-.43 1.9 1.9 0 0 1 .31-.38 1.92 1.92 0 0 1 .38-.31 2.21 2.21 0 0 1 .43-.23 2.56 2.56 0 0 1 .47-.15 2.33 2.33 0 0 1 1.44.15 2.18 2.18 0 0 1 .43.23 1.9 1.9 0 0 1 .38.31 2.35 2.35 0 0 1 .32.38 4.33 4.33 0 0 1 .23.43 2.62 2.62 0 0 1 .14.47 2.59 2.59 0 0 1 0 .48 2.51 2.51 0 0 1-.74 1.77 1.9 1.9 0 0 1-.38.31 2.18 2.18 0 0 1-.43.23 2.64 2.64 0 0 1-.46.14 2.09 2.09 0 0 1-.44 0z"/><path class="cls-4" d="M122.65 193.32a2 2 0 0 1-.49 0 2.4 2.4 0 0 1-.9-.37 1.91 1.91 0 0 1-.38-.31 2.93 2.93 0 0 1-.31-.38 2.57 2.57 0 0 1-.23-.43 2.46 2.46 0 0 1-.14-.47 2 2 0 0 1-.05-.49 2.47 2.47 0 0 1 .73-1.76 2 2 0 0 1 .38-.32 2.91 2.91 0 0 1 .43-.23 2.53 2.53 0 0 1 .47-.14 2.49 2.49 0 0 1 1.44.14 2.86 2.86 0 0 1 .43.23 1.94 1.94 0 0 1 .38.32 2.9 2.9 0 0 1 .32.37c.08.14.16.28.23.43a2.87 2.87 0 0 1 .14.47 2.69 2.69 0 0 1 0 .49 2.52 2.52 0 0 1-.74 1.77 1.89 1.89 0 0 1-.38.31 2.19 2.19 0 0 1-.43.23 2.64 2.64 0 0 1-.46.14 2.09 2.09 0 0 1-.44 0zm0 12.21a2.59 2.59 0 0 1-.49-.05 2 2 0 0 1-.47-.15 2.61 2.61 0 0 1-.43-.23 1.91 1.91 0 0 1-.38-.31 2.39 2.39 0 0 1-.31-.38 2.19 2.19 0 0 1-.23-.43 2.43 2.43 0 0 1-.14-.47 2 2 0 0 1-.05-.48 2.49 2.49 0 0 1 .73-1.77 1.91 1.91 0 0 1 .38-.31 2.21 2.21 0 0 1 .43-.23 2.53 2.53 0 0 1 .47-.14 2.3 2.3 0 0 1 1 0 2.64 2.64 0 0 1 .46.14 2.19 2.19 0 0 1 .43.23 1.89 1.89 0 0 1 .38.31 2.51 2.51 0 0 1-1.78 4.27zm-18.58-15.87l9.92-11.37m-9.92 13.87a2.5 2.5 0 0 1-1.88-4.14l9.92-11.37a2.5 2.5 0 1 1 3.77 3.29L106 191.3a2.49 2.49 0 0 1-1.93.86zm-3.86-19.91l7.9-.81m-7.9 3.31a2.5 2.5 0 0 1-.25-5l7.9-.81a2.5 2.5 0 0 1 .51 5l-7.9.81h-.26z"/><path class="cls-3" d="M94.74 175.3A2.5 2.5 0 0 1 93 171a2.39 2.39 0 0 1 .38-.32 2.9 2.9 0 0 1 .43-.23 2.54 2.54 0 0 1 .47-.14 2.5 2.5 0 0 1 2.25 4.22 2.18 2.18 0 0 1-.37.31 2.59 2.59 0 0 1-.44.23 2.44 2.44 0 0 1-.46.15 2.75 2.75 0 0 1-.52.08zM110 163.16a2.48 2.48 0 0 1-1.2-.31l-1.18-.64a2.5 2.5 0 1 1 2.39-4.39l1.18.64a2.5 2.5 0 0 1-1.19 4.7z"/><path class="cls-4" d="M98.19 154.22l3.86 2.11m0 2.5a2.48 2.48 0 0 1-1.2-.31L97 156.41a2.5 2.5 0 1 1 2.39-4.41l3.86 2.11a2.5 2.5 0 0 1-1.2 4.72zm14.33-16.19a2.61 2.61 0 0 1-.49 0 2.58 2.58 0 0 1-.47-.14 3 3 0 0 1-.43-.23 2.35 2.35 0 0 1-.38-.31 2.52 2.52 0 0 1-.74-1.77 2.61 2.61 0 0 1 0-.49 2.65 2.65 0 0 1 .15-.47 2.27 2.27 0 0 1 .23-.43 2.42 2.42 0 0 1 .69-.69 2.18 2.18 0 0 1 .43-.23 2.5 2.5 0 0 1 .47-.14 2.34 2.34 0 0 1 1 0 2.69 2.69 0 0 1 .46.14 2.62 2.62 0 0 1 .44.23 2.71 2.71 0 0 1 .38.31 2.26 2.26 0 0 1 .3.38 2.53 2.53 0 0 1 .23.43 2.58 2.58 0 0 1 .15.47 2.69 2.69 0 0 1 0 .49 2.84 2.84 0 0 1 0 .49 2.72 2.72 0 0 1-.15.46 2.3 2.3 0 0 1-.23.44 2.78 2.78 0 0 1-.31.38 2.38 2.38 0 0 1-.38.31 3 3 0 0 1-.43.23 2.61 2.61 0 0 1-.47.14 2.57 2.57 0 0 1-.45 0z"/><path class="cls-3" d="M120 156.36a2.5 2.5 0 0 1-2.43-1.93l-1.89-8.12a2.5 2.5 0 1 1 4.87-1.13l1.89 8.12a2.5 2.5 0 0 1-2.44 3.06zm20.18-6a2.68 2.68 0 0 1-.49 0 2.39 2.39 0 0 1-.46-.15 2.27 2.27 0 0 1-.44-.23 2.65 2.65 0 0 1-.38-.31 2.51 2.51 0 0 1-.73-1.76 2.69 2.69 0 0 1 0-.49 2.5 2.5 0 0 1 .14-.47 2.87 2.87 0 0 1 .23-.43 2.34 2.34 0 0 1 .31-.38 2.65 2.65 0 0 1 .38-.31 2.32 2.32 0 0 1 .44-.23 2.53 2.53 0 0 1 .46-.15 2.67 2.67 0 0 1 1 0 2.6 2.6 0 0 1 .47.15 2.57 2.57 0 0 1 .43.23 2.21 2.21 0 0 1 .38.31 2.38 2.38 0 0 1 .31.38 2.25 2.25 0 0 1 .23.43 2.58 2.58 0 0 1 .14.47 2 2 0 0 1 0 .49 2.49 2.49 0 0 1-2.42 2.45z"/><path class="cls-4" d="M134.47 154.88l2.78-3.41m-2.78 5.91a2.5 2.5 0 0 1-1.94-4.08l2.78-3.41a2.5 2.5 0 1 1 3.88 3.16l-2.78 3.41a2.5 2.5 0 0 1-1.94.92zm3.05 30.02l-7.27-10.47m7.27 12.97a2.5 2.5 0 0 1-2.06-1.08l-7.26-10.48a2.5 2.5 0 0 1 4.11-2.85l7.26 10.51a2.5 2.5 0 0 1-2.05 3.9z"/><path class="cls-3" d="M143.28 172.92h-.38l-9.43-1.44a2.5 2.5 0 1 1 .75-4.94l9.43 1.44a2.5 2.5 0 0 1-.37 4.94z"/><path class="cls-5" d="M90.63 59.77l14.89 7.96-14.89 7.96-8.14 14.56-8.15-14.56-14.88-7.96 14.88-7.96 8.15-14.56 8.14 14.56z"/><path class="cls-6" d="M235.24 165.81l7.86 4.21-7.86 4.2-4.3 7.69-4.3-7.69-7.86-4.2 7.86-4.21 4.3-7.68 4.3 7.68z"/><circle class="cls-7" cx="97.65" cy="114.31" r="2.15"/><path class="cls-7" d="M175.1 118.16a15.3 15.3 0 1 1 15.3-15.3 15.31 15.31 0 0 1-15.3 15.3zm0-25.59a10.3 10.3 0 1 0 10.3 10.3 10.31 10.31 0 0 0-10.3-10.3z"/><path class="cls-8" d="M175.1 136.51a2.55 2.55 0 0 1-1.77-.73 2.51 2.51 0 0 1-.73-1.77 2 2 0 0 1 0-.49 2.53 2.53 0 0 1 .14-.47 2.5 2.5 0 0 1 .23-.43 2.17 2.17 0 0 1 .31-.38 2.26 2.26 0 0 1 .38-.31 2.21 2.21 0 0 1 .43-.23 2.55 2.55 0 0 1 .47-.14 2.34 2.34 0 0 1 1 0 2.43 2.43 0 0 1 .46.14 2.18 2.18 0 0 1 .43.23 2.26 2.26 0 0 1 .38.31 2.49 2.49 0 0 1 0 3.54 2.3 2.3 0 0 1-.38.31 2.18 2.18 0 0 1-.43.23 2.43 2.43 0 0 1-.46.14 2.69 2.69 0 0 1-.46.05zm0 14.99a2.55 2.55 0 0 1-1.77-.73 2.71 2.71 0 0 1-.31-.38 2.62 2.62 0 0 1-.23-.44 2.45 2.45 0 0 1-.14-.46 2 2 0 0 1 0-.49 2 2 0 0 1 0-.49 2.5 2.5 0 0 1 .14-.47 2.54 2.54 0 0 1 .23-.43 2.25 2.25 0 0 1 .31-.38 1.86 1.86 0 0 1 .38-.31 2.27 2.27 0 0 1 .43-.23 2.62 2.62 0 0 1 .47-.14 2.31 2.31 0 0 1 1 0 2.5 2.5 0 0 1 .46.14 2.24 2.24 0 0 1 .43.23 1.86 1.86 0 0 1 .38.31 2.31 2.31 0 0 1 .32.38 3.65 3.65 0 0 1 .23.43 2.58 2.58 0 0 1 .14.47 2.61 2.61 0 0 1 0 .49 2.69 2.69 0 0 1 0 .49 2.52 2.52 0 0 1-.14.46 3.76 3.76 0 0 1-.23.44 2.8 2.8 0 0 1-.32.38 2.94 2.94 0 0 1-.38.31 2.86 2.86 0 0 1-.43.23 2.43 2.43 0 0 1-.46.14 2.78 2.78 0 0 1-.51.05zm0 14.99a2.51 2.51 0 0 1-1.77-.74 1.92 1.92 0 0 1-.31-.38 2.19 2.19 0 0 1-.23-.43 2.5 2.5 0 0 1-.14-.47 2 2 0 0 1 0-.49 2 2 0 0 1 0-.48 2.5 2.5 0 0 1 .14-.47 2.19 2.19 0 0 1 .23-.43 1.92 1.92 0 0 1 .31-.38 1.86 1.86 0 0 1 .38-.31 2.21 2.21 0 0 1 .43-.23 2.5 2.5 0 0 1 .47-.15 2.67 2.67 0 0 1 1 0 2.39 2.39 0 0 1 .46.15 2.19 2.19 0 0 1 .43.23 1.86 1.86 0 0 1 .38.31 2 2 0 0 1 .32.38 3 3 0 0 1 .23.43 2.62 2.62 0 0 1 .19.95 2.61 2.61 0 0 1 0 .49 2.58 2.58 0 0 1-.14.47 3 3 0 0 1-.23.43 2 2 0 0 1-.32.38 1.86 1.86 0 0 1-.38.31 2.24 2.24 0 0 1-.43.23 2.53 2.53 0 0 1-.46.15 2.69 2.69 0 0 1-.56.05zm0 14.98a2.5 2.5 0 0 1-1.77-.73 1.9 1.9 0 0 1-.31-.38 2.18 2.18 0 0 1-.23-.43 2.5 2.5 0 0 1-.14-.47 2 2 0 0 1 0-.49 2.09 2.09 0 0 1 0-.49 2.43 2.43 0 0 1 .14-.46 2.26 2.26 0 0 1 .23-.44 2.66 2.66 0 0 1 .31-.38 2.26 2.26 0 0 1 .38-.31 2.9 2.9 0 0 1 .43-.23 2.55 2.55 0 0 1 .47-.14 2.71 2.71 0 0 1 1 0 2.43 2.43 0 0 1 .46.14 2.86 2.86 0 0 1 .43.23 2.26 2.26 0 0 1 .38.31 2.74 2.74 0 0 1 .32.38 3.06 3.06 0 0 1 .23.44 2.5 2.5 0 0 1 .14.46 2.69 2.69 0 0 1 0 .49 2.61 2.61 0 0 1 0 .49 2.58 2.58 0 0 1-.14.47 3 3 0 0 1-.23.43 1.94 1.94 0 0 1-.32.38 1.89 1.89 0 0 1-.38.31 2.24 2.24 0 0 1-.43.23 2.5 2.5 0 0 1-.46.14 2 2 0 0 1-.51.05zm0 14.99a2.55 2.55 0 0 1-1.77-.73 2.71 2.71 0 0 1-.31-.38 2.45 2.45 0 0 1-.37-.9 2.44 2.44 0 0 1 0-1 2.5 2.5 0 0 1 .14-.47 2.54 2.54 0 0 1 .23-.43 2.71 2.71 0 0 1 .31-.38 2.3 2.3 0 0 1 .38-.31 2.27 2.27 0 0 1 .43-.23 2.62 2.62 0 0 1 .47-.14 2.31 2.31 0 0 1 1 0 2.5 2.5 0 0 1 .46.14 2.24 2.24 0 0 1 .43.23 2.3 2.3 0 0 1 .38.31 2.8 2.8 0 0 1 .32.38 3.65 3.65 0 0 1 .23.43 2.58 2.58 0 0 1 .14.47 2.44 2.44 0 0 1 0 1 2.62 2.62 0 0 1-.14.47 3.63 3.63 0 0 1-.23.43 2.8 2.8 0 0 1-.32.38 2.26 2.26 0 0 1-.38.31 2.18 2.18 0 0 1-.43.23 2.43 2.43 0 0 1-.46.14 2.78 2.78 0 0 1-.51.05z"/><path class="cls-7" d="M175.1 129a2.51 2.51 0 0 1-1.77-.74 2.3 2.3 0 0 1-.31-.38 2.18 2.18 0 0 1-.23-.43 2.53 2.53 0 0 1-.14-.47 2.38 2.38 0 0 1 0-1 2.54 2.54 0 0 1 .14-.47 2.21 2.21 0 0 1 .23-.43 2.46 2.46 0 0 1 .69-.69 2.21 2.21 0 0 1 .43-.23 3.65 3.65 0 0 1 .47-.15 2.71 2.71 0 0 1 1 0 3.47 3.47 0 0 1 .46.15 2.18 2.18 0 0 1 .43.23 1.9 1.9 0 0 1 .38.31 1.94 1.94 0 0 1 .32.38 3 3 0 0 1 .23.43 2.63 2.63 0 0 1 .19 1 2.48 2.48 0 0 1-.74 1.76 2.35 2.35 0 0 1-.38.32 2.15 2.15 0 0 1-.43.22 1.91 1.91 0 0 1-.46.15 2.69 2.69 0 0 1-.51.04zm0 15a2.5 2.5 0 0 1-1.77-.73 2.26 2.26 0 0 1-.31-.38 2.21 2.21 0 0 1-.23-.43 2.55 2.55 0 0 1-.14-.47 2 2 0 0 1 0-.49 2 2 0 0 1 0-.48 2.53 2.53 0 0 1 .14-.47 2.18 2.18 0 0 1 .23-.43 1.86 1.86 0 0 1 .31-.38 2.3 2.3 0 0 1 .38-.32 3 3 0 0 1 .43-.23 2.62 2.62 0 0 1 .47-.14 2.71 2.71 0 0 1 1 0 2.5 2.5 0 0 1 .46.14 3 3 0 0 1 .43.23 2.3 2.3 0 0 1 .38.32 1.91 1.91 0 0 1 .32.38 3 3 0 0 1 .23.43 2.62 2.62 0 0 1 .19 1 2.49 2.49 0 0 1-.74 1.77 1.86 1.86 0 0 1-.38.31 2.18 2.18 0 0 1-.43.23 2.43 2.43 0 0 1-.46.14 2 2 0 0 1-.51 0zm0 15a2.55 2.55 0 0 1-1.77-.73 2.5 2.5 0 0 1-.73-1.77 2 2 0 0 1 0-.49 2.74 2.74 0 0 1 .14-.47 2.54 2.54 0 0 1 .23-.43 2.71 2.71 0 0 1 .31-.38 2.25 2.25 0 0 1 .38-.31 2.21 2.21 0 0 1 .43-.23 2.55 2.55 0 0 1 .47-.14 2.67 2.67 0 0 1 1 0 2.43 2.43 0 0 1 .46.14 2.19 2.19 0 0 1 .43.23 2.25 2.25 0 0 1 .38.31 2.8 2.8 0 0 1 .32.38 3.65 3.65 0 0 1 .23.43 2.83 2.83 0 0 1 .14.47 2.69 2.69 0 0 1 0 .49 2.51 2.51 0 0 1-.74 1.77 2.25 2.25 0 0 1-.38.31 2.14 2.14 0 0 1-.43.23 2.43 2.43 0 0 1-.46.14 2 2 0 0 1-.41.05zm0 15a2.55 2.55 0 0 1-1.77-.73 2.5 2.5 0 0 1-.73-1.77 2 2 0 0 1 0-.49 2.45 2.45 0 0 1 .37-.9 2.25 2.25 0 0 1 .31-.38 2.31 2.31 0 0 1 .38-.31 2.21 2.21 0 0 1 .43-.23 2.47 2.47 0 0 1 .47-.14 2.31 2.31 0 0 1 1 0 2.36 2.36 0 0 1 .46.14 2.18 2.18 0 0 1 .43.23 2.67 2.67 0 0 1 .7.69 3.63 3.63 0 0 1 .23.43 2.61 2.61 0 0 1 .14.47 2.67 2.67 0 0 1 0 .49 2.51 2.51 0 0 1-.74 1.77 2.3 2.3 0 0 1-.38.31 3 3 0 0 1-.43.23 2.5 2.5 0 0 1-.46.14 2.69 2.69 0 0 1-.41.05zm0 15a2.69 2.69 0 0 1-.49 0 2 2 0 0 1-.47-.15 2.48 2.48 0 0 1-.43-.22 2.3 2.3 0 0 1-.38-.32 2.26 2.26 0 0 1-.31-.38 2.21 2.21 0 0 1-.23-.43 2.69 2.69 0 0 1-.14-.46 2.09 2.09 0 0 1 0-.49 2 2 0 0 1 0-.49 2.53 2.53 0 0 1 .14-.47 2.18 2.18 0 0 1 .23-.43 1.86 1.86 0 0 1 .31-.38 2.51 2.51 0 0 1 2.26-.68 2.43 2.43 0 0 1 .46.14 2.18 2.18 0 0 1 .43.23 1.86 1.86 0 0 1 .38.31 1.91 1.91 0 0 1 .32.38 3 3 0 0 1 .23.43 2.62 2.62 0 0 1 .19 1 2.52 2.52 0 0 1-.19 1 3 3 0 0 1-.23.43 1.91 1.91 0 0 1-.32.38 2.3 2.3 0 0 1-.38.32 2.15 2.15 0 0 1-.43.22 1.91 1.91 0 0 1-.46.15 2.69 2.69 0 0 1-.49-.09zm0 15a2 2 0 0 1-.49-.05 2.43 2.43 0 0 1-.9-.37 1.9 1.9 0 0 1-.38-.31 2.34 2.34 0 0 1-.31-.38 2.21 2.21 0 0 1-.23-.43 2.54 2.54 0 0 1-.14-.47 2 2 0 0 1 0-.49 2.09 2.09 0 0 1 0-.49 2.67 2.67 0 0 1 .37-.9 2.18 2.18 0 0 1 .31-.37 2.51 2.51 0 0 1 2.26-.69 2 2 0 0 1 .46.15 2.2 2.2 0 0 1 .43.22 2.3 2.3 0 0 1 .38.32 2.25 2.25 0 0 1 .32.37 3.78 3.78 0 0 1 .23.44 2.72 2.72 0 0 1 .14.46 2.78 2.78 0 0 1 0 .49 2.63 2.63 0 0 1-.19 1 3 3 0 0 1-.23.43 2 2 0 0 1-.32.38 1.9 1.9 0 0 1-.38.31 2.18 2.18 0 0 1-.43.23 2.43 2.43 0 0 1-.46.14 2 2 0 0 1-.44.01z"/><path class="cls-8" d="M175.1 54.17a2.5 2.5 0 0 1-2.5-2.5v-3.1a2.5 2.5 0 0 1 5 0v3.11a2.5 2.5 0 0 1-2.5 2.49zm0 23.49a2.5 2.5 0 0 1-2.5-2.5V57a2.5 2.5 0 1 1 5 0v18.16a2.5 2.5 0 0 1-2.5 2.5z"/><path class="cls-7" d="M189.14 71.6a2.5 2.5 0 0 1-2.25-3.6l8-16.76a2.5 2.5 0 1 1 4.52 2.15l-8 16.76a2.5 2.5 0 0 1-2.27 1.45zm-5.28 11.11a2.5 2.5 0 0 1-2.26-3.57l2.4-5.05a2.5 2.5 0 1 1 4.52 2.15l-2.4 5.05a2.5 2.5 0 0 1-2.26 1.42z"/><path class="cls-8" d="M210.12 70.23a2.51 2.51 0 0 1-2.5-2.5 2.5 2.5 0 0 1 .74-1.77 2.35 2.35 0 0 1 .38-.31 2.18 2.18 0 0 1 .43-.23 2.43 2.43 0 0 1 .47-.14 2.26 2.26 0 0 1 1 0 2.46 2.46 0 0 1 .47.14 2.21 2.21 0 0 1 .43.23 2.39 2.39 0 0 1 .38.31 2.3 2.3 0 0 1 .31.38 2.53 2.53 0 0 1 .23.43 2.56 2.56 0 0 1 .15.47 2.39 2.39 0 0 1-.15 1.45 2.54 2.54 0 0 1-.23.43 2.78 2.78 0 0 1-.31.38 2.53 2.53 0 0 1-1.8.73z"/><path class="cls-8" d="M195.61 84.74a2.5 2.5 0 0 1-1.77-4.27l10.64-10.64a2.5 2.5 0 1 1 3.52 3.54L197.38 84a2.49 2.49 0 0 1-1.77.74z"/><path class="cls-7" d="M207.68 93.49a2.5 2.5 0 0 1-.86-4.85l10.61-3.88a2.5 2.5 0 1 1 1.72 4.7l-10.61 3.88a2.5 2.5 0 0 1-.86.15zm-9.92 3.63a2.5 2.5 0 0 1-.86-4.85l4.61-1.68a2.5 2.5 0 1 1 1.72 4.7L198.62 97a2.5 2.5 0 0 1-.86.12z"/><path class="cls-8" d="M230 104.69h-12.6a2.5 2.5 0 1 1 0-5H230a2.5 2.5 0 1 1 0 5zm-18.42 0h-12.45a2.5 2.5 0 1 1 0-5h12.46a2.5 2.5 0 1 1-.01 5z"/><path class="cls-7" d="M223.87 126.41a2.55 2.55 0 0 1-1.77-.73 3.76 3.76 0 0 1-.31-.38 3.08 3.08 0 0 1-.23-.44 2.48 2.48 0 0 1-.14-.46 2.43 2.43 0 0 1 0-1 2.58 2.58 0 0 1 .14-.47 3.65 3.65 0 0 1 .23-.43 2.92 2.92 0 0 1 .31-.38 3.76 3.76 0 0 1 .38-.31 2.62 2.62 0 0 1 .43-.23 2.58 2.58 0 0 1 .47-.14 2.3 2.3 0 0 1 1 0 2.4 2.4 0 0 1 .9.37 2.43 2.43 0 0 1 .69.69 2.54 2.54 0 0 1 .23.43 2.43 2.43 0 0 1 .14.47 2.39 2.39 0 0 1 0 1 2.34 2.34 0 0 1-.14.46 2.27 2.27 0 0 1-.23.44 3.77 3.77 0 0 1-.31.38 2.93 2.93 0 0 1-.38.31 3.63 3.63 0 0 1-.43.23 2.46 2.46 0 0 1-.47.14 2.68 2.68 0 0 1-.51.05zm-5.28-2.41a2.48 2.48 0 0 1-1-.23l-19.46-9a2.5 2.5 0 0 1 2.1-4.54l19.46 9a2.5 2.5 0 0 1-1.1 4.77z"/><path class="cls-8" d="M213.05 144.63a2.49 2.49 0 0 1-1.81-.77l-9.92-10.39a2.5 2.5 0 1 1 3.62-3.45l9.92 10.39a2.5 2.5 0 0 1-1.81 4.22zM198.15 129a2.49 2.49 0 0 1-1.81-.77l-6.47-6.78a2.5 2.5 0 1 1 3.62-3.45l6.47 6.78a2.5 2.5 0 0 1-1.81 4.22z"/><path class="cls-7" d="M191.2 149.8a2.5 2.5 0 0 1-2.37-1.69l-4-11.56a2.5 2.5 0 0 1 4.73-1.62l4 11.56a2.5 2.5 0 0 1-2.36 3.31zm-6.13-17.89a2.5 2.5 0 0 1-2.37-1.69l-1.43-4.22a2.5 2.5 0 1 1 4.73-1.62l1.44 4.19a2.5 2.5 0 0 1-2.37 3.34zM163.81 73.4a2.5 2.5 0 0 1-2.36-1.69l-6.9-20a2.5 2.5 0 0 1 4.73-1.63l6.9 20a2.5 2.5 0 0 1-2.37 3.32zm2.34 6.79a2.53 2.53 0 0 1-1.77-.74 2.35 2.35 0 0 1-.31-.38 3 3 0 0 1-.23-.43 2.43 2.43 0 0 1-.14-.47 2.61 2.61 0 0 1-.05-.49 2.51 2.51 0 0 1 .73-1.76 2.44 2.44 0 0 1 2.73-.54 2.19 2.19 0 0 1 .43.23 2 2 0 0 1 .38.31 1.91 1.91 0 0 1 .31.38 2.27 2.27 0 0 1 .23.43 3.77 3.77 0 0 1 .15.47 2.56 2.56 0 0 1 0 .48 2.61 2.61 0 0 1 0 .49 3.71 3.71 0 0 1-.15.47 2.24 2.24 0 0 1-.23.43 1.89 1.89 0 0 1-.31.38 2.52 2.52 0 0 1-1.77.74zm-18.86-3.36a2.49 2.49 0 0 1-1.88-.85L135.85 65a2.5 2.5 0 1 1 3.76-3.29l9.56 10.94a2.5 2.5 0 0 1-1.88 4.18zm7.78 8.91a2.5 2.5 0 0 1-1.88-.85l-3-3.47a2.5 2.5 0 0 1 3.77-3.29l3 3.47a2.5 2.5 0 0 1-1.89 4.14z"/><path class="cls-8" d="M138.91 89.39a2.51 2.51 0 0 1-1-.19l-13.67-5.68a2.5 2.5 0 0 1 1.92-4.62l13.67 5.68a2.5 2.5 0 0 1-.92 4.81zm14.75 6.14a2.51 2.51 0 0 1-1-.19l-9.55-4a2.5 2.5 0 0 1 1.92-4.62l9.55 4a2.5 2.5 0 0 1-.92 4.81z"/><path class="cls-7" d="M136.16 105.36h-8.45a2.5 2.5 0 0 1 0-5h8.45a2.5 2.5 0 0 1 0 5zm6.35 0a2.53 2.53 0 0 1-1.77-.73 2.34 2.34 0 0 1-.31-.38 2.54 2.54 0 0 1-.23-.43 2.5 2.5 0 0 1-.14-.47 2 2 0 0 1 0-.49 2.54 2.54 0 0 1 .73-1.77 2.5 2.5 0 0 1 2.26-.68 2.43 2.43 0 0 1 .46.14 2.21 2.21 0 0 1 .44.23 3.53 3.53 0 0 1 .38.31 2.54 2.54 0 0 1 .73 1.77 2.69 2.69 0 0 1 0 .49 2.5 2.5 0 0 1-.14.47 2.54 2.54 0 0 1-.23.43 2 2 0 0 1-.32.38 2.51 2.51 0 0 1-1.86.73z"/><path class="cls-8" d="M136.73 118.77a2.5 2.5 0 0 1-.86-4.85l6.36-2.32a2.5 2.5 0 0 1 1.72 4.7l-6.36 2.32a2.5 2.5 0 0 1-.86.15zm12.16-4.44a2.5 2.5 0 0 1-.86-4.85l4-1.46a2.5 2.5 0 0 1 1.72 4.7l-4 1.46a2.52 2.52 0 0 1-.86.15z"/><path class="cls-7" d="M140.16 139.88a2.5 2.5 0 0 1-1.73-4.3l8.25-7.94a2.5 2.5 0 1 1 3.47 3.6l-8.25 7.94a2.49 2.49 0 0 1-1.74.7zm13.24-12.74a2.5 2.5 0 0 1-1.73-4.3l4.21-4a2.5 2.5 0 1 1 3.47 3.6l-4.21 4a2.49 2.49 0 0 1-1.74.7z"/><path class="cls-8" d="M154.51 153.21a2.5 2.5 0 0 1-2.31-3.45l3-7.19a2.5 2.5 0 1 1 4.63 1.9l-3 7.19a2.5 2.5 0 0 1-2.32 1.55zm5.73-13.93a2.5 2.5 0 0 1-2.31-3.45l4.9-11.91a2.5 2.5 0 0 1 4.62 1.9l-4.9 11.91a2.5 2.5 0 0 1-2.31 1.55z"/><circle class="cls-4" cx="121.59" cy="167.34" r="2.15"/><path class="cls-4" d="M121.59 172a4.65 4.65 0 1 1 4.65-4.65 4.65 4.65 0 0 1-4.65 4.65zm0-5a.35.35 0 1 0 .35.35.35.35 0 0 0-.35-.35z"/><path class="cls-8" d="M204.92 206.75a2.52 2.52 0 0 1-.69-.1l-4.75-1.36a2.5 2.5 0 0 1 1.38-4.81l4.75 1.36a2.5 2.5 0 0 1-.69 4.91zm15.16 4.34a2.53 2.53 0 0 1-.69-.1l-4.75-1.36a2.5 2.5 0 0 1 1.38-4.81l4.75 1.36a2.5 2.5 0 0 1-.69 4.91zm-8.32-9.21a2.53 2.53 0 0 1-.69-.1 2.5 2.5 0 0 1-1.71-3.09l1.36-4.75a2.5 2.5 0 0 1 4.81 1.38l-1.36 4.75a2.5 2.5 0 0 1-2.41 1.81zm-4.7 16.39a2.5 2.5 0 0 1-2.4-3.19l1.36-4.75a2.5 2.5 0 1 1 4.81 1.38l-1.36 4.75a2.5 2.5 0 0 1-2.41 1.81z"/></svg>