<svg id="Layer_1" data-name="Layer 1" xmlns="http://www.w3.org/2000/svg" viewBox="0 0 300 300"><defs><style>.cls-1{fill:#fbf3f4;}.cls-2{fill:#ffd2d2;}.cls-3{fill:red;}.cls-4{fill:#fbcb14;}.cls-5{fill:#026664;}.cls-6{fill:#ff661a;}.cls-7{fill:#ce912d;}.cls-8{fill:#ff0bd1;}.cls-9{fill:#a3d29b;}</style></defs><title>Holiday2016_GiftCurator_People</title><rect class="cls-1" x="-3.24" y="-3.24" width="306.49" height="306.49"/><circle class="cls-2" cx="150" cy="150" r="80.35"/><path class="cls-2" d="M150,232.85A82.85,82.85,0,1,1,232.85,150,82.95,82.95,0,0,1,150,232.85Zm0-160.71A77.85,77.85,0,1,0,227.85,150,77.94,77.94,0,0,0,150,72.15Z"/><path class="cls-3" d="M182.17,139.44V190a17.62,17.62,0,0,1-3.82,11,21.49,21.49,0,0,1-17.06,7.9H135.41c-10.83,0-16.32-8.16-18.81-13.77a21.57,21.57,0,0,1-1.78-8.76V139.44"/><path class="cls-3" d="M161.3,209.39H135.41c-11.33,0-16.93-8.82-19.26-14.07a22,22,0,0,1-1.83-9V139.44a0.5,0.5,0,0,1,1,0v46.92a21,21,0,0,0,1.74,8.56c2.73,6.15,8.13,13.48,18.35,13.48H161.3A21.07,21.07,0,0,0,178,200.69,17.13,17.13,0,0,0,181.67,190V139.44a0.5,0.5,0,0,1,1,0V190a18.1,18.1,0,0,1-3.92,11.35A22.07,22.07,0,0,1,161.3,209.39Z"/><path class="cls-3" d="M115.42,139.39a6.93,6.93,0,0,1-6.06-6.85h0a6.93,6.93,0,0,1,6.91-6.91h64.46a6.93,6.93,0,0,1,6.91,6.91h0a6.93,6.93,0,0,1-6.91,6.91"/><path class="cls-3" d="M180.73,139.94a0.5,0.5,0,0,1,0-1,6.41,6.41,0,1,0,0-12.81H116.27a6.41,6.41,0,0,0-.79,12.76,0.5,0.5,0,1,1-.12,1,7.41,7.41,0,0,1,.91-14.76h64.46A7.41,7.41,0,1,1,180.73,139.94Z"/><circle class="cls-4" cx="226.33" cy="84.22" r="4" transform="translate(-14.65 68.48) rotate(-16.67)"/><path class="cls-4" d="M226.33,90.71a6.5,6.5,0,1,1,1.86-.27h0A6.47,6.47,0,0,1,226.33,90.71ZM227.48,88h0Zm-1.14-5.33a1.5,1.5,0,1,0,.43,2.93h0A1.5,1.5,0,0,0,227,82.9,1.48,1.48,0,0,0,226.33,82.72Z"/><line class="cls-4" x1="264.04" y1="72.92" x2="244.73" y2="78.71"/><path class="cls-4" d="M244.73,81.21a2.5,2.5,0,0,1-.72-4.9l19.31-5.78a2.5,2.5,0,0,1,1.43,4.79L245.45,81.1A2.47,2.47,0,0,1,244.73,81.21Z"/><line class="cls-4" x1="212.18" y1="88.46" x2="198.85" y2="92.45"/><path class="cls-4" d="M198.85,94.95a2.5,2.5,0,0,1-.72-4.9l13.33-4a2.5,2.5,0,0,1,1.43,4.79l-13.33,4A2.47,2.47,0,0,1,198.85,94.95Z"/><line class="cls-4" x1="251.6" y1="97.84" x2="236.47" y2="89.68"/><path class="cls-4" d="M251.6,100.34a2.48,2.48,0,0,1-1.18-.3l-15.13-8.16a2.5,2.5,0,0,1,2.37-4.4l15.13,8.16A2.5,2.5,0,0,1,251.6,100.34Z"/><path class="cls-4" d="M191.91,68.16a2.69,2.69,0,0,1-.49-0.05A2.43,2.43,0,0,1,191,68a2.19,2.19,0,0,1-.43-0.23,2,2,0,0,1-.38-0.31,2.24,2.24,0,0,1-.31-0.38,2.4,2.4,0,0,1-.37-0.9,2.43,2.43,0,0,1,0-1,2.48,2.48,0,0,1,.14-0.46,2.36,2.36,0,0,1,.23-0.44,2.18,2.18,0,0,1,.31-0.37,2,2,0,0,1,.38-0.32,3,3,0,0,1,.43-0.23,2.58,2.58,0,0,1,.47-0.14,2.66,2.66,0,0,1,1,0,2.48,2.48,0,0,1,.46.14,3.08,3.08,0,0,1,.44.23,2.86,2.86,0,0,1,.38.32,2.83,2.83,0,0,1,.31.37,3.13,3.13,0,0,1,.23.44,2.34,2.34,0,0,1,.14.46,2.39,2.39,0,0,1,0,1,2.46,2.46,0,0,1-.14.47A3.63,3.63,0,0,1,194,67a2.93,2.93,0,0,1-.31.38,2.79,2.79,0,0,1-.38.31,2.59,2.59,0,0,1-.44.23,2.34,2.34,0,0,1-.46.14A2.68,2.68,0,0,1,191.91,68.16Z"/><line class="cls-4" x1="216.59" y1="78.97" x2="197.85" y2="68.87"/><path class="cls-4" d="M216.59,81.47a2.48,2.48,0,0,1-1.18-.3l-18.74-10.1a2.5,2.5,0,1,1,2.37-4.4l18.74,10.1A2.5,2.5,0,0,1,216.59,81.47Z"/><line class="cls-4" x1="207.93" y1="119.66" x2="221.21" y2="95.01"/><path class="cls-4" d="M207.93,122.16a2.5,2.5,0,0,1-2.2-3.69L219,93.83a2.5,2.5,0,0,1,4.4,2.37l-13.29,24.65A2.5,2.5,0,0,1,207.93,122.16Z"/><line class="cls-4" x1="237.37" y1="66.34" x2="243.42" y2="55.12"/><path class="cls-4" d="M237.37,68.84a2.5,2.5,0,0,1-2.2-3.69l6-11.22a2.5,2.5,0,0,1,4.4,2.37l-6,11.22A2.5,2.5,0,0,1,237.37,68.84Z"/><path class="cls-4" d="M234.45,74.26a2.55,2.55,0,0,1-1.77-.73,3.54,3.54,0,0,1-.31-0.38,2.32,2.32,0,0,1-.23-0.44,2.5,2.5,0,0,1-.14-0.46,2.69,2.69,0,0,1,0-.49,2.55,2.55,0,0,1,.73-1.77,2.85,2.85,0,0,1,.38-0.31,2.54,2.54,0,0,1,.43-0.23,2.5,2.5,0,0,1,.47-0.14,2.33,2.33,0,0,1,1,0,2.41,2.41,0,0,1,.46.14,2.27,2.27,0,0,1,.44.23,3.64,3.64,0,0,1,.38.31,2.55,2.55,0,0,1,.73,1.77,2.69,2.69,0,0,1-.05.49,2.43,2.43,0,0,1-.14.46,3.06,3.06,0,0,1-.23.44,3.68,3.68,0,0,1-.31.38A2.55,2.55,0,0,1,234.45,74.26Z"/><line class="cls-4" x1="221.52" y1="67.9" x2="214.56" y2="44.67"/><path class="cls-4" d="M221.52,70.4a2.5,2.5,0,0,1-2.39-1.78l-7-23.23A2.5,2.5,0,0,1,217,43.95l7,23.23A2.5,2.5,0,0,1,221.52,70.4Z"/><line class="cls-4" x1="230.64" y1="98.34" x2="230.65" y2="98.39"/><path class="cls-4" d="M230.65,100.89A2.51,2.51,0,1,1,233,97.64v0a2.5,2.5,0,0,1-1.7,3.1A2.53,2.53,0,0,1,230.65,100.89Z"/><line class="cls-4" x1="237.7" y1="121.91" x2="233.61" y2="108.27"/><path class="cls-4" d="M237.7,124.41a2.5,2.5,0,0,1-2.39-1.78L231.22,109a2.5,2.5,0,0,1,4.79-1.44l4.09,13.64A2.5,2.5,0,0,1,237.7,124.41Z"/><path class="cls-5" d="M94.66,223.45a2.49,2.49,0,0,1-1.23-.32l-4.24-2.4a2.5,2.5,0,0,1,2.46-4.35l4.24,2.4A2.5,2.5,0,0,1,94.66,223.45Z"/><path class="cls-5" d="M108.19,231.1a2.49,2.49,0,0,1-1.23-.32l-4.24-2.4a2.5,2.5,0,0,1,2.46-4.35l4.24,2.4A2.5,2.5,0,0,1,108.19,231.1Z"/><path class="cls-5" d="M102.33,220.21a2.5,2.5,0,0,1-2.19-3.71l2.39-4.34a2.5,2.5,0,0,1,4.38,2.41l-2.39,4.34A2.5,2.5,0,0,1,102.33,220.21Z"/><path class="cls-5" d="M94.07,235.22a2.5,2.5,0,0,1-2.19-3.71l2.39-4.34a2.5,2.5,0,0,1,4.38,2.41l-2.39,4.34A2.5,2.5,0,0,1,94.07,235.22Z"/><polygon class="cls-6" points="93.82 92.87 104.19 98.42 93.82 103.96 88.15 114.09 82.49 103.96 72.12 98.42 82.49 92.87 88.15 82.74 93.82 92.87"/><path class="cls-3" d="M183.46,192a2.5,2.5,0,0,1,0-5,16.9,16.9,0,0,0,0-33.8,2.5,2.5,0,0,1,0-5A21.9,21.9,0,0,1,183.46,192Z"/><path class="cls-2" d="M130.35,144.43h-4.6a2.5,2.5,0,0,1,0-5h4.6A2.5,2.5,0,0,1,130.35,144.43Z"/><path class="cls-2" d="M182.17,144.43H138.77a2.5,2.5,0,0,1,0-5h43.41A2.5,2.5,0,0,1,182.17,144.43Z"/><path class="cls-7" d="M132.58,94.17c0.81,0.48,4.6,3.31,2.37,6.86s-2.64,7.23.65,9.87"/><path class="cls-8" d="M135.6,113.4a2.49,2.49,0,0,1-1.56-.55c-4-3.16-4.41-8.07-1.21-13.15a1.48,1.48,0,0,0,.27-1.22,4.48,4.48,0,0,0-1.8-2.16,2.5,2.5,0,1,1,2.56-4.3A9.35,9.35,0,0,1,138,97.31a6.47,6.47,0,0,1-.9,5.05c-2.72,4.33-.68,6,0.1,6.58A2.5,2.5,0,0,1,135.6,113.4Z"/><path class="cls-7" d="M145.21,94.17c0.81,0.48,4.6,3.31,2.37,6.86s-2.64,7.23.65,9.87"/><path class="cls-8" d="M148.23,113.4a2.49,2.49,0,0,1-1.56-.55c-4-3.16-4.41-8.07-1.21-13.15a1.48,1.48,0,0,0,.27-1.22,4.48,4.48,0,0,0-1.8-2.16,2.5,2.5,0,1,1,2.56-4.3,9.35,9.35,0,0,1,4.11,5.29,6.47,6.47,0,0,1-.9,5.05c-2.72,4.33-.68,6,0.1,6.58A2.5,2.5,0,0,1,148.23,113.4Z"/><path class="cls-7" d="M157.84,94.17c0.81,0.48,4.6,3.31,2.37,6.86s-2.64,7.23.65,9.87"/><path class="cls-8" d="M160.86,113.4a2.49,2.49,0,0,1-1.56-.55c-4-3.16-4.4-8.07-1.21-13.15a1.48,1.48,0,0,0,.27-1.22,4.48,4.48,0,0,0-1.8-2.16,2.5,2.5,0,1,1,2.56-4.3,9.35,9.35,0,0,1,4.11,5.29,6.47,6.47,0,0,1-.9,5.05c-2.72,4.33-.67,6,0.1,6.58A2.5,2.5,0,0,1,160.86,113.4Z"/><path class="cls-2" d="M160.7,201.5a2.5,2.5,0,0,1,0-5A10.34,10.34,0,0,0,171,186.17a2.5,2.5,0,0,1,5,0A15.35,15.35,0,0,1,160.7,201.5Z"/><circle class="cls-9" cx="218.04" cy="239.5" r="2.12"/><path class="cls-9" d="M218,244.12a4.62,4.62,0,1,1,4.62-4.62A4.62,4.62,0,0,1,218,244.12Zm0-5a0.38,0.38,0,1,0,.38.38A0.38,0.38,0,0,0,218,239.12Z"/><circle class="cls-9" cx="92.04" cy="159.02" r="2.12"/><path class="cls-9" d="M92,163.64A4.62,4.62,0,1,1,96.66,159,4.62,4.62,0,0,1,92,163.64Zm0-5a0.38,0.38,0,1,0,.38.38A0.38,0.38,0,0,0,92,158.64Z"/><circle class="cls-3" cx="125.74" cy="44.17" r="2.12"/><path class="cls-3" d="M125.74,46.79a2.62,2.62,0,1,1,2.62-2.62A2.62,2.62,0,0,1,125.74,46.79Zm0-4.24a1.62,1.62,0,1,0,1.62,1.62A1.62,1.62,0,0,0,125.74,42.55Z"/><path class="cls-2" d="M151.28,159.56l3.88-4.64,2.74-1,7.2,20.22-3.9,1.39-5.59-15.72-3,3.42Z"/><path class="cls-2" d="M139.67,183.07a1.68,1.68,0,0,1-2.15-1l-6.38-17.93a1.68,1.68,0,1,1,3.17-1.13l6.38,17.93A1.68,1.68,0,0,1,139.67,183.07Z"/><path class="cls-2" d="M146.94,180.48a1.68,1.68,0,0,1-2.15-1l-6.38-17.93a1.68,1.68,0,0,1,3.17-1.13L148,178.33A1.68,1.68,0,0,1,146.94,180.48Z"/><path class="cls-2" d="M147.78,166l-17.93,6.38a1.68,1.68,0,0,1-1.13-3.17l17.93-6.38A1.68,1.68,0,1,1,147.78,166Z"/><path class="cls-2" d="M150.37,173.26l-17.93,6.38a1.68,1.68,0,0,1-1.13-3.17l17.93-6.38A1.68,1.68,0,0,1,150.37,173.26Z"/></svg>