<svg id="Layer_1" data-name="Layer 1" xmlns="http://www.w3.org/2000/svg" viewBox="0 0 300 300"><defs><style>.cls-1{fill:#fbf3f4}.cls-2{fill:#ce912d}.cls-3{fill:#fff}.cls-4{fill:#ff0bd1}</style></defs><title>Holiday2016_GiftCurator_People</title><path class="cls-1" d="M-3.24-3.24h306.49v306.49H-3.24z"/><path class="cls-2" d="M152 229.35a81.74 81.74 0 0 1-48.44-15.75 2 2 0 0 1 2.36-3.23 78.38 78.38 0 0 0 94.43-1.71 2 2 0 1 1 2.47 3.15A81.52 81.52 0 0 1 152 229.35zm-66.82-125a2 2 0 0 1-1.66-3.11 82.37 82.37 0 0 1 134.93-2.89 2 2 0 0 1-3.23 2.37 78.37 78.37 0 0 0-128.38 2.75 2 2 0 0 1-1.66.88z"/><path class="cls-3" d="M127.62 56.42l-4.7-9.19"/><path class="cls-2" d="M127.62 58.92a2.5 2.5 0 0 1-2.23-1.36l-4.7-9.18a2.5 2.5 0 0 1 4.45-2.28l4.7 9.18a2.5 2.5 0 0 1-2.22 3.64z"/><path class="cls-3" d="M143.15 53.76l-1.53-15.37"/><path class="cls-2" d="M143.14 56.26a2.5 2.5 0 0 1-2.48-2.26l-1.52-15.37a2.5 2.5 0 1 1 5-.49l1.52 15.37a2.5 2.5 0 0 1-2.24 2.73h-.25z"/><path class="cls-3" d="M157.15 53.23l2.49-14.94"/><path class="cls-2" d="M157.15 55.73a2.5 2.5 0 0 1-2.47-2.91l2.49-14.94a2.5 2.5 0 0 1 4.93.82l-2.49 14.94a2.5 2.5 0 0 1-2.46 2.09z"/><path class="cls-3" d="M171.43 57.17l5.18-11.12"/><path class="cls-2" d="M171.43 59.67a2.5 2.5 0 0 1-2.26-3.56L174.34 45a2.5 2.5 0 0 1 4.53 2.11l-5.17 11.11a2.5 2.5 0 0 1-2.27 1.45zm-93.67 99.42l-35.38 4.88"/><path class="cls-4" d="M42.38 166.47a2.5 2.5 0 0 1-.34-5l35.38-4.88a2.5 2.5 0 0 1 .68 5l-35.38 4.88z"/><path class="cls-2" d="M76.99 142.09l-24.32-5.65"/><path class="cls-4" d="M77 144.59a2.53 2.53 0 0 1-.57-.07l-24.32-5.65a2.5 2.5 0 0 1 1.13-4.87l24.32 5.65a2.5 2.5 0 0 1-.56 4.94z"/><path class="cls-2" d="M79.95 125.07l-12.51-7.85"/><path class="cls-4" d="M79.95 127.57a2.49 2.49 0 0 1-1.33-.38l-12.51-7.85a2.5 2.5 0 1 1 2.66-4.24l12.51 7.9a2.5 2.5 0 0 1-1.33 4.57z"/><path class="cls-2" d="M81.17 174.92l-24.8 12.03"/><path class="cls-4" d="M56.37 189.45a2.5 2.5 0 0 1-1.09-4.75l24.8-12a2.5 2.5 0 1 1 2.18 4.5l-24.8 12a2.48 2.48 0 0 1-1.09.25z"/><path class="cls-2" d="M88.64 189.72L78.1 200.81"/><path class="cls-4" d="M78.1 203.31a2.5 2.5 0 0 1-1.81-4.22L86.83 188a2.5 2.5 0 0 1 3.63 3.44l-10.55 11.09a2.49 2.49 0 0 1-1.81.78z"/><path class="cls-3" d="M96.13 230.28l11.88 6.36-11.88 6.35-6.5 11.62-6.5-11.62-11.88-6.35 11.88-6.36 6.5-11.61 6.5 11.61z"/><path class="cls-2" d="M89.63 256.61a2 2 0 0 1-1.75-1l-6.21-11.11-11.36-6.1a2 2 0 0 1 0-3.53l11.37-6.08 6.21-11.11a2 2 0 0 1 3.49 0l6.21 11.11 11.41 6.08a2 2 0 0 1 0 3.53l-11.37 6.08-6.21 11.11a2 2 0 0 1-1.79 1.02zm-14.14-20l8.58 4.59a2 2 0 0 1 .8.79l4.75 8.5 4.75-8.5a2 2 0 0 1 .8-.79l8.58-4.59-8.56-4.61a2 2 0 0 1-.8-.79l-4.75-8.5-4.75 8.5a2 2 0 0 1-.8.79z"/><path class="cls-3" d="M215.18 57.16l5.46 2.92-5.46 2.92-2.99 5.33-2.98-5.33-5.47-2.92 5.47-2.92 2.98-5.34 2.99 5.34z"/><path class="cls-2" d="M212.19 70.33a2 2 0 0 1-1.75-1l-2.7-4.83-4.94-2.64a2 2 0 0 1 0-3.53l4.94-2.64 2.7-4.83a2 2 0 0 1 3.49 0l2.7 4.83 4.94 2.64a2 2 0 0 1 0 3.53l-4.94 2.64-2.7 4.83a2 2 0 0 1-1.74 1zM208 60.08l2.16 1.16a2 2 0 0 1 .8.79l1.24 2.22 1.23-2.25a2 2 0 0 1 .8-.79l2.16-1.16-2.16-1.16a2 2 0 0 1-.8-.79l-1.24-2.22-1.19 2.25a2 2 0 0 1-.8.79z"/><path class="cls-3" d="M74.14 60.54l9.11 4.12"/><path class="cls-2" d="M83.25 66.66a2 2 0 0 1-.82-.18l-9.12-4.12A2 2 0 1 1 75 58.72l9.12 4.12a2 2 0 0 1-.87 3.82z"/><path class="cls-3" d="M91.96 68.59l9.11 4.12"/><path class="cls-2" d="M101.07 74.71a2 2 0 0 1-.82-.18l-9.12-4.12a2 2 0 1 1 1.65-3.64l9.12 4.12a2 2 0 0 1-.83 3.82z"/><path class="cls-3" d="M93.69 53.16l-4.12 9.12"/><path class="cls-2" d="M89.57 64.28a2 2 0 0 1-1.82-2.82l4.12-9.12A2 2 0 1 1 95.51 54l-4.12 9.1a2 2 0 0 1-1.82 1.18z"/><path class="cls-3" d="M85.64 70.98l-4.12 9.12"/><path class="cls-2" d="M81.52 82.1a2 2 0 0 1-1.82-2.82l4.12-9.12a2 2 0 1 1 3.64 1.65l-4.12 9.12a2 2 0 0 1-1.82 1.17z"/><path class="cls-3" d="M155.71 196.62L195 102c-50.61-24.56-91 0-91 0l39.12 92.76.83 1.15c1.09 1.16 2.13 1.53 3 2.87 1.63 2.53 1.52 6.86 1.38 9.8-.1 2 1 5.07 3.7 4.26 2.5-.76 1.85-5.24 1.85-7.19a25.14 25.14 0 0 1 0-4.83 26.72 26.72 0 0 1 1.39-3.8z"/><path class="cls-2" d="M151.19 215a4.19 4.19 0 0 1-2.61-.9 6.92 6.92 0 0 1-2.26-5.59c.1-1.94.32-6.48-1.06-8.61a5.07 5.07 0 0 0-1.26-1.25 12.73 12.73 0 0 1-1.5-1.33l-.17-.2-.82-1.12a2 2 0 0 1-.22-.39l-39.12-92.81a2 2 0 0 1 .8-2.49c.41-.25 41.88-24.84 92.89-.09a2 2 0 0 1 1 2.57l-39.28 94.6a2 2 0 0 1-.41.62l-.12.12c-.12.29-.24.59-.37.89a12.29 12.29 0 0 0-.78 2.19 14.43 14.43 0 0 0-.05 3.17v2.28c.1 2.46.3 7-3.3 8.14a4.87 4.87 0 0 1-1.36.2zm-5.69-20.34a10.06 10.06 0 0 0 1 .85 8.73 8.73 0 0 1 2.14 2.22c1.83 2.83 1.9 6.95 1.7 11a3.16 3.16 0 0 0 .72 2.24.36.36 0 0 0 .4 0c.19-.06.62-.58.47-4.14v-2.19a17.33 17.33 0 0 1 .12-4.14 15.23 15.23 0 0 1 1-3c.16-.38.32-.76.45-1.12a2 2 0 0 1 .44-.7l.14-.14 38.4-92.5c-42.92-20-78.27-4-85.86-.11l38.33 90.89zm10.21 2.34z"/><path class="cls-2" d="M149.5 152.24a16.13 16.13 0 1 1 16.13-16.13 16.15 16.15 0 0 1-16.13 16.13zm0-28.25a12.13 12.13 0 1 0 12.13 12.13A12.14 12.14 0 0 0 149.5 124zm-33.91 8.07a2 2 0 0 1-.59-.06c-.56-.18-.25-.79-.47-1.34l-6-15.5c-.35-.87-1.77-4.06-1-4.59l9.19-3.62a2 2 0 0 1 2.52.21 15.73 15.73 0 0 1-2.56 24.63 2 2 0 0 1-1.09.27zm-6.46-19.56l7.32 14.36a11.66 11.66 0 0 0 3.57-8.43c0-2.67-2-6.88-3.64-8.93zm72.2 12.92A18.39 18.39 0 0 1 163 107a18.75 18.75 0 0 1 .18-2.55 2 2 0 0 1 2.63-1.62l25.19 6.42c.54.19-.72 3-.5 3.5a2 2 0 0 1-.25 1.63l-3.5 8c-.23.48.84 1.95.34 2.12a17.32 17.32 0 0 1-5.76.92zm-14.45-18.92c.25 7.71 6.69 14.92 14.45 14.92A13.51 13.51 0 0 0 185 121l3.73-8.45zm-9.18 86.88a2 2 0 0 1-1.17-.38 15 15 0 0 1 11.19-26.94 2 2 0 0 1 1.52 2.74l-9.7 23.35a2 2 0 0 1-1.84 1.23zm6.76-23.49a11 11 0 0 0-7.52 18.1z"/><path class="cls-2" d="M108.21 114.62a2 2 0 0 1-2-1.8 2.55 2.55 0 0 1 1.29-2.29c7.84-5.91 40.18-18.82 84.41-1.21a2 2 0 1 1-1.48 3.72c-48.85-19.46-78.87-.44-80.63.77a2 2 0 0 1-1.4.79h-.2zm2-2.18zm0 0zm0 0zm112.54 46.65l35.38 4.88"/><path class="cls-4" d="M258.13 166.47h-.34l-35.38-4.88a2.5 2.5 0 0 1 .68-5l35.38 4.88a2.5 2.5 0 0 1-.34 5z"/><path class="cls-2" d="M223.52 142.09l24.31-5.65"/><path class="cls-4" d="M223.52 144.59a2.5 2.5 0 0 1-.56-4.94l24.31-5.65a2.5 2.5 0 0 1 1.13 4.87l-24.32 5.65a2.53 2.53 0 0 1-.56.07z"/><path class="cls-2" d="M220.56 125.07l12.51-7.85"/><path class="cls-4" d="M220.56 127.57a2.5 2.5 0 0 1-1.33-4.62l12.51-7.85a2.5 2.5 0 1 1 2.66 4.24l-12.51 7.85a2.49 2.49 0 0 1-1.33.38z"/><path class="cls-2" d="M219.34 174.92l24.8 12.03"/><path class="cls-4" d="M244.13 189.45a2.48 2.48 0 0 1-1.09-.25l-24.8-12a2.5 2.5 0 0 1 2.18-4.5l24.8 12a2.5 2.5 0 0 1-1.09 4.75z"/><path class="cls-2" d="M211.87 189.72l10.54 11.09"/><path class="cls-4" d="M222.41 203.31a2.49 2.49 0 0 1-1.81-.78l-10.54-11.09a2.5 2.5 0 0 1 3.63-3.44l10.54 11.09a2.5 2.5 0 0 1-1.82 4.22z"/><circle class="cls-3" cx="203.74" cy="234.47" r="2.17"/><path class="cls-2" d="M203.74 238.64a4.17 4.17 0 1 1 4.17-4.17 4.17 4.17 0 0 1-4.17 4.17zm0-4.33a.17.17 0 0 0-.17.17c0 .18.33.18.33 0a.17.17 0 0 0-.16-.17z"/></svg>