<svg id="Layer_1" data-name="Layer 1" xmlns="http://www.w3.org/2000/svg" viewBox="0 0 300 300"><defs><style>.cls-1{fill:#fbf3f4}.cls-2{fill:#ffd2d2}.cls-3{fill:#a3d29b}.cls-4{fill:#ff661a}.cls-5{fill:#ff0bd1}.cls-6{fill:red}.cls-7{fill:#fbcb14}</style></defs><title>Holiday2016_GiftCurator_People</title><path class="cls-1" d="M-3.24-3.24h306.49v306.49H-3.24z"/><circle class="cls-2" cx="150" cy="150" r="80.35"/><path class="cls-2" d="M150 232.85A82.85 82.85 0 1 1 232.85 150 82.95 82.95 0 0 1 150 232.85zm0-160.71A77.85 77.85 0 1 0 227.85 150 77.94 77.94 0 0 0 150 72.15z"/><path class="cls-3" d="M127.37 56.21l-4.7-9.18m4.7 11.69a2.5 2.5 0 0 1-2.23-1.36l-4.7-9.18a2.5 2.5 0 1 1 4.45-2.28l4.7 9.18a2.5 2.5 0 0 1-2.22 3.64zm15.52-5.16l-1.52-15.37m1.52 17.87a2.5 2.5 0 0 1-2.48-2.25l-1.52-15.37a2.5 2.5 0 0 1 5-.49l1.52 15.37a2.5 2.5 0 0 1-2.27 2.68h-.25zm14.01-3.03l2.49-14.94m-2.49 17.44a2.5 2.5 0 0 1-2.47-2.91l2.49-14.94a2.5 2.5 0 1 1 4.93.82l-2.49 14.94a2.5 2.5 0 0 1-2.46 2.09zm14.28 1.44l5.17-11.12m-5.17 13.62a2.5 2.5 0 0 1-2.26-3.56l5.17-11.12a2.5 2.5 0 1 1 4.53 2.11L173.45 58a2.5 2.5 0 0 1-2.27 1.47z"/><path class="cls-4" d="M42.12 166.27a2.5 2.5 0 0 1-.34-5l35.38-4.88a2.5 2.5 0 0 1 .68 5l-35.38 4.88zm34.62-21.88a2.53 2.53 0 0 1-.57-.07l-24.32-5.65A2.5 2.5 0 0 1 53 133.8l24.32 5.65a2.5 2.5 0 0 1-.58 4.94zm2.95-17.02a2.49 2.49 0 0 1-1.33-.38l-12.51-7.85a2.5 2.5 0 1 1 2.66-4.24L81 122.75a2.5 2.5 0 0 1-1.31 4.62zm-23.57 61.88A2.5 2.5 0 0 1 55 184.5l24.8-12A2.5 2.5 0 1 1 82 177l-24.8 12a2.48 2.48 0 0 1-1.08.25zm21.73 13.86a2.5 2.5 0 0 1-1.85-4.22l10.57-11.09a2.5 2.5 0 0 1 3.63 3.44l-10.54 11.09a2.49 2.49 0 0 1-1.81.78z"/><path class="cls-5" d="M95.88 230.08l11.88 6.36-11.88 6.35-6.5 11.62-6.5-11.62L71 236.44l11.88-6.36 6.5-11.61 6.5 11.61zM214.92 56.96l5.46 2.92-5.46 2.92-2.98 5.33-2.99-5.33-5.46-2.92 5.46-2.92 2.99-5.34 2.98 5.34z"/><path class="cls-6" d="M73.88 60.34L83 64.46M83 67a2.5 2.5 0 0 1-1-.22l-9.12-4.12a2.5 2.5 0 1 1 2.06-4.56L84 62.18A2.5 2.5 0 0 1 83 67zm8.7 1.39l9.12 4.12m0 2.49a2.5 2.5 0 0 1-1-.22l-9.12-4.12a2.5 2.5 0 1 1 2.06-4.56l9.12 4.12a2.5 2.5 0 0 1-1.06 4.78zm-7.38-22.04l-4.12 9.12m-.01 2.5A2.5 2.5 0 0 1 87 61l4.12-9.12A2.5 2.5 0 0 1 95.71 54l-4.12 9.12a2.5 2.5 0 0 1-2.28 1.46zm-3.92 6.2l-4.12 9.12m-.01 2.5A2.5 2.5 0 0 1 79 78.87l4.12-9.12a2.5 2.5 0 0 1 4.56 2.06l-4.12 9.12a2.5 2.5 0 0 1-2.3 1.47z"/><path class="cls-7" d="M155.45 196.42l39.28-94.6c-50.61-24.56-91 0-91 0l39.12 92.76.83 1.15c1.09 1.16 2.13 1.53 3 2.87 1.63 2.53 1.52 6.86 1.38 9.8-.1 2 1 5.07 3.7 4.26 2.5-.76 1.85-5.24 1.85-7.19a25.14 25.14 0 0 1 0-4.83 26.72 26.72 0 0 1 1.39-3.8z"/><circle class="cls-6" cx="149.24" cy="135.92" r="14.13"/><path class="cls-6" d="M117.57 108.36a13.73 13.73 0 0 1-2.24 21.5L109 114.23zm47.3-3.79a16.38 16.38 0 0 0 16.21 18.65 15.26 15.26 0 0 0 5.11-.81l4.4-9.07zm-7.42 86.6a13 13 0 0 1 9.7-23.35z"/><path class="cls-2" d="M108 114.92a2.5 2.5 0 0 1-2.48-2.25 3.06 3.06 0 0 1 1.49-2.73c7.9-6 40.46-19 84.9-1.27a2.5 2.5 0 0 1-1.85 4.64c-44.48-17.71-75.62-3.11-80.05.62a2.49 2.49 0 0 1-1.75 1H108zm2.5-2.68zm.55 0zm-.55 0zm0 0zm.55 0zm-.55 0zm.55 0zm0 0zm-.55 0zm.55 0zm-.55 0zm0 0zm.56 0z"/><path class="cls-4" d="M257.88 166.27h-.34l-35.38-4.88a2.5 2.5 0 1 1 .68-5l35.38 4.88a2.5 2.5 0 0 1-.34 5zm-34.62-21.88a2.5 2.5 0 0 1-.56-4.94l24.3-5.65a2.5 2.5 0 1 1 1.13 4.87l-24.32 5.65a2.53 2.53 0 0 1-.55.07zm-2.95-17.02a2.5 2.5 0 0 1-1.33-4.62l12.51-7.85a2.5 2.5 0 1 1 2.66 4.24L221.63 127a2.49 2.49 0 0 1-1.32.37zm23.57 61.88a2.48 2.48 0 0 1-1.09-.25L218 177a2.5 2.5 0 1 1 2.18-4.5l24.8 12a2.5 2.5 0 0 1-1.1 4.75zm-21.73 13.86a2.49 2.49 0 0 1-1.81-.78l-10.54-11.09a2.5 2.5 0 1 1 3.63-3.44L224 198.89a2.5 2.5 0 0 1-1.85 4.22z"/><circle class="cls-3" cx="203.49" cy="234.27" r="2.17"/><path class="cls-3" d="M203.49 238.94a4.67 4.67 0 1 1 4.67-4.67 4.67 4.67 0 0 1-4.67 4.67zm0-5a.33.33 0 1 0 .33.33.34.34 0 0 0-.33-.33z"/></svg>