<svg id="Layer_1" data-name="Layer 1" xmlns="http://www.w3.org/2000/svg" viewBox="0 0 300 300"><defs><style>.cls-1{fill:#fbf3f4}.cls-2{fill:#ffd2d2}.cls-3{fill:#ff0bd1}.cls-4{fill:#ce912d}.cls-5{fill:red}.cls-6{fill:#ff661a}.cls-7{fill:#026664}.cls-8{fill:#fbcb14}.cls-9{fill:#a3d29b}</style></defs><title>Holiday2016_GiftCurator_People</title><path class="cls-1" d="M-3.24-3.24h306.49v306.49H-3.24z"/><circle class="cls-2" cx="150" cy="150" r="80.35"/><path class="cls-2" d="M150 232.85A82.85 82.85 0 1 1 232.85 150 82.95 82.95 0 0 1 150 232.85zm0-160.71A77.85 77.85 0 1 0 227.85 150 77.94 77.94 0 0 0 150 72.15z"/><path class="cls-3" d="M170.32 211.91a4 4 0 0 1-2.83-6.83 4.21 4.21 0 0 1 .61-.5 4.54 4.54 0 0 1 .69-.37 4.89 4.89 0 0 1 .75-.23 4.11 4.11 0 0 1 1.56 0 4.57 4.57 0 0 1 .75.23 4.16 4.16 0 0 1 .69.37 3.79 3.79 0 0 1 .61.5 4.38 4.38 0 0 1 .5.61 4.21 4.21 0 0 1 .37.69 3.79 3.79 0 0 1 .22.75 3.41 3.41 0 0 1 .08.78 4 4 0 0 1-4 4zm-26.32 0a4 4 0 0 1-2.83-6.83 4.21 4.21 0 0 1 .61-.5 4.54 4.54 0 0 1 .69-.37 4.89 4.89 0 0 1 .75-.23 4.11 4.11 0 0 1 1.56 0 4.57 4.57 0 0 1 .75.23 4.16 4.16 0 0 1 .69.37 3.79 3.79 0 0 1 .61.5 4.38 4.38 0 0 1 .5.61 4.21 4.21 0 0 1 .37.69 3.79 3.79 0 0 1 .22.75 3.41 3.41 0 0 1 .08.78 4 4 0 0 1-4 4zm13.15 0a4 4 0 1 1 3.84-5.14 4 4 0 0 1-3.84 5.14z"/><path class="cls-5" d="M115.45 102.01h65.82v78.11h-65.82zm7.42 84.1h51.17v6h-51.17z"/><path class="cls-2" d="M125.91 111.79H171v38.58h-45.09z"/><circle class="cls-2" cx="127.32" cy="165.73" r="2.98"/><path class="cls-2" d="M164.21 167.73h-18.35a2 2 0 1 1 0-4h18.36a2 2 0 1 1-.01 4z"/><path class="cls-2" d="M164.21 161.65h8.07v8.07h-8.07z"/><path class="cls-3" d="M139.65 138.11h2.73v2.73h-2.73zm5.42-5.07h2.73v2.73h-2.73z"/><path class="cls-3" d="M141.68 139.97h13.91v2.73h-13.91z"/><path class="cls-3" transform="rotate(90 139.645 123.775)" d="M136.16 122.41h6.96v2.73h-6.96z"/><path class="cls-3" transform="rotate(180 157.905 123.775)" d="M154.43 122.41h6.96v2.73h-6.96z"/><path class="cls-3" transform="rotate(90 148.96 131.07)" d="M144.26 129.7h9.4v2.73h-9.4z"/><path class="cls-3" d="M154.85 138.11h2.73v2.73h-2.73z"/><path class="cls-6" d="M87.18 73.63a2.49 2.49 0 0 1-1.82-.79L73.83 60.6a2.5 2.5 0 0 1 3.64-3.43L89 69.41a2.5 2.5 0 0 1-1.82 4.22zm15.48-6.74a2.5 2.5 0 0 1-2.5-2.45l-.33-16.81a2.5 2.5 0 1 1 5-.1l.33 16.81a2.5 2.5 0 0 1-2.45 2.55zM78.77 88.78h-.35L61.77 86.4a2.5 2.5 0 0 1 .7-5l16.65 2.36a2.5 2.5 0 0 1-.35 5.02z"/><circle class="cls-5" cx="190.86" cy="44.8" r="3.98"/><circle class="cls-3" cx="235.67" cy="91.34" r="3.98"/><path class="cls-7" d="M214.14 50.91l3.78 13.98 13.67 4.82-12.13 7.92-.36 14.48-11.28-9.09-13.89 4.14 5.16-13.54-8.23-11.92 14.48.72 8.8-11.51z"/><path class="cls-8" d="M96.65 196.72l13.38 7.16-13.38 7.15-7.32 13.08-7.32-13.08-13.38-7.15 13.38-7.16 7.32-13.08 7.32 13.08z"/><path class="cls-6" d="M229.23 221.41l5.75 3.08-5.75 3.07-3.14 5.63-3.15-5.63-5.75-3.07 5.75-3.08 3.15-5.62 3.14 5.62z"/><path class="cls-9" d="M198.86 134.41l4.75 1.36m0 2.5a2.53 2.53 0 0 1-.69-.1l-4.75-1.36a2.5 2.5 0 0 1 1.38-4.81l4.75 1.36a2.5 2.5 0 0 1-.69 4.91zm10.41.49l4.74 1.36m0 2.5a2.53 2.53 0 0 1-.69-.1l-4.75-1.36a2.5 2.5 0 0 1 1.38-4.81l4.75 1.36a2.5 2.5 0 0 1-.69 4.91zm-6.95-16.46l-1.36 4.74m0 2.51a2.53 2.53 0 0 1-.69-.1 2.5 2.5 0 0 1-1.71-3.09l1.36-4.75a2.5 2.5 0 0 1 4.81 1.38l-1.36 4.75a2.5 2.5 0 0 1-2.41 1.81zm-3.35 9.14l-1.36 4.75m0 2.5a2.53 2.53 0 0 1-.69-.1 2.5 2.5 0 0 1-1.71-3.09l1.36-4.75a2.5 2.5 0 1 1 4.81 1.38l-1.36 4.76a2.5 2.5 0 0 1-2.41 1.8zm-150.6 18l.04-.04m-.04 4.01a4 4 0 0 1-3.18-6.4 4 4 0 1 1 3.18 6.4zm-2.8-25.35l.04-.04m-.04 4.01a4 4 0 0 1-3.18-6.4 4 4 0 1 1 3.18 6.4zm3.44-24.45l.03.04m0 4.02a4 4 0 1 1 3.31-6.24 4 4 0 0 1-3.31 6.24z"/><path class="cls-7" d="M95.71 147.61a4.91 4.91 0 1 1 4.91-4.91 4.91 4.91 0 0 1-4.91 4.91z"/></svg>