<svg id="Layer_1" data-name="Layer 1" xmlns="http://www.w3.org/2000/svg" viewBox="0 0 300 300"><defs><style>.cls-1{fill:#fbf3f4}.cls-2{fill:#ce912d}.cls-3{fill:#fff}.cls-4{fill:#026664}.cls-5{fill:#ce912c}</style></defs><title>Holiday2016_GiftCurator_People</title><path class="cls-1" d="M-3.12-3.12h306.49v306.49H-3.12z"/><path class="cls-2" d="M88.5 203.72A2 2 0 0 1 87 203a82.47 82.47 0 0 1-13.58-83.29 2 2 0 1 1 3.72 1.47A78.47 78.47 0 0 0 90 200.43a2 2 0 0 1-1.5 3.29zm61.5 28.63a83.45 83.45 0 0 1-11.4-.78 2 2 0 1 1 .55-4 79.34 79.34 0 0 0 10.85.75A78.44 78.44 0 0 0 228.35 150a2 2 0 0 1 4 0A82.45 82.45 0 0 1 150 232.35zM113.25 80.53a2 2 0 0 1-.92-3.78 81.44 81.44 0 0 1 37.67-9.1 82.83 82.83 0 0 1 18.49 2.08 2 2 0 1 1-.89 3.9 78.83 78.83 0 0 0-17.59-2 77.5 77.5 0 0 0-35.84 8.66 2 2 0 0 1-.92.24z"/><path class="cls-3" d="M182.17 139.44V190a17.62 17.62 0 0 1-3.82 11 21.49 21.49 0 0 1-17.06 7.9h-25.88c-10.83 0-16.32-8.16-18.81-13.77a21.57 21.57 0 0 1-1.78-8.76v-46.93"/><path class="cls-2" d="M161.3 210.89h-25.89c-12.18 0-18.15-9.37-20.63-15a23.46 23.46 0 0 1-2-9.57v-46.88a2 2 0 0 1 4 0v46.92a19.47 19.47 0 0 0 1.61 8c2.55 5.74 7.56 12.58 17 12.58h25.91a19.56 19.56 0 0 0 15.48-7.13 15.65 15.65 0 0 0 3.4-9.82v-50.55a2 2 0 0 1 4 0V190a19.57 19.57 0 0 1-4.24 12.27 23.58 23.58 0 0 1-18.64 8.62z"/><path class="cls-3" d="M115.42 139.39a6.93 6.93 0 0 1-6.06-6.85 6.93 6.93 0 0 1 6.91-6.91h64.46a6.93 6.93 0 0 1 6.91 6.91 6.93 6.93 0 0 1-6.91 6.91"/><path class="cls-2" d="M180.73 141.44a2 2 0 0 1 0-4 4.91 4.91 0 1 0 0-9.81h-64.46a4.91 4.91 0 0 0-.6 9.78 2 2 0 0 1-.49 4 8.91 8.91 0 0 1 1.1-17.74h64.46a8.91 8.91 0 1 1-.01 17.77z"/><path class="cls-4" d="M226.33 90.71a6.5 6.5 0 1 1 1.86-.27 6.47 6.47 0 0 1-1.86.27zm1.15-2.71zm-1.14-5.33a1.5 1.5 0 1 0 .43 2.93 1.5 1.5 0 0 0 .23-2.7 1.48 1.48 0 0 0-.67-.18zm18.39-1.46a2.5 2.5 0 0 1-.72-4.9l19.31-5.78a2.5 2.5 0 0 1 1.43 4.79l-19.3 5.78a2.47 2.47 0 0 1-.72.11zm-45.88 13.74a2.5 2.5 0 0 1-.72-4.9l13.33-4a2.5 2.5 0 0 1 1.43 4.79l-13.33 4a2.47 2.47 0 0 1-.71.11zm52.75 5.39a2.48 2.48 0 0 1-1.18-.3l-15.13-8.16a2.5 2.5 0 0 1 2.37-4.4l15.13 8.16a2.5 2.5 0 0 1-1.19 4.7zm-59.69-32.18a2.51 2.51 0 0 1-1.77-.73 2.24 2.24 0 0 1-.31-.38 2.4 2.4 0 0 1-.37-.9 2.43 2.43 0 0 1 0-1 2.83 2.83 0 0 1 .14-.47 2.62 2.62 0 0 1 .23-.43 2.18 2.18 0 0 1 .31-.37 2.35 2.35 0 0 1 .38-.32 3.65 3.65 0 0 1 .43-.23 2.58 2.58 0 0 1 .47-.14 2.66 2.66 0 0 1 1 0 2.48 2.48 0 0 1 .46.14 3.08 3.08 0 0 1 .44.23 2.9 2.9 0 0 1 .37.32 2.29 2.29 0 0 1 .32.37 3.64 3.64 0 0 1 .23.43 2.65 2.65 0 0 1 .14.47 2.39 2.39 0 0 1 0 1 2.46 2.46 0 0 1-.14.47 3.63 3.63 0 0 1-.24.38 2.36 2.36 0 0 1-.32.38 2.23 2.23 0 0 1-.37.31 2.27 2.27 0 0 1-.44.23 2.34 2.34 0 0 1-.46.14 2.09 2.09 0 0 1-.5.1zm24.68 13.31a2.48 2.48 0 0 1-1.18-.3l-18.74-10.1a2.5 2.5 0 1 1 2.37-4.4l18.74 10.1a2.5 2.5 0 0 1-1.19 4.7zm-8.66 40.69a2.5 2.5 0 0 1-2.2-3.69L219 93.83a2.5 2.5 0 0 1 4.4 2.37l-13.29 24.65a2.5 2.5 0 0 1-2.18 1.31zm29.44-53.32a2.5 2.5 0 0 1-2.2-3.69l6-11.22a2.5 2.5 0 0 1 4.4 2.37l-6 11.22a2.5 2.5 0 0 1-2.2 1.32zm-2.92 5.42a2.5 2.5 0 0 1-1.77-4.26 2.85 2.85 0 0 1 .38-.31 2.54 2.54 0 0 1 .43-.23 2.5 2.5 0 0 1 .47-.14 2.5 2.5 0 0 1 2.26 4.22 3.76 3.76 0 0 1-.38.31 3 3 0 0 1-.44.23 2.41 2.41 0 0 1-.46.14 2.68 2.68 0 0 1-.49.04zm-12.93-3.86a2.5 2.5 0 0 1-2.39-1.78l-7-23.23a2.5 2.5 0 0 1 4.87-1.44l7 23.23a2.5 2.5 0 0 1-2.48 3.22zm9.13 30.49a2.51 2.51 0 1 1 2.35-3.25 2.5 2.5 0 0 1-1.7 3.1 2.53 2.53 0 0 1-.65.15zm7.05 23.52a2.5 2.5 0 0 1-2.39-1.78L231.22 109a2.5 2.5 0 0 1 4.79-1.44l4.09 13.64a2.5 2.5 0 0 1-2.4 3.21z"/><path class="cls-3" d="M90.43 218.55l4.24 2.4"/><path class="cls-2" d="M94.66 223.45a2.49 2.49 0 0 1-1.23-.32l-4.24-2.4a2.5 2.5 0 0 1 2.46-4.35l4.24 2.4a2.5 2.5 0 0 1-1.23 4.67z"/><path class="cls-3" d="M103.95 226.21l4.24 2.39"/><path class="cls-2" d="M108.19 231.1a2.49 2.49 0 0 1-1.23-.32l-4.24-2.4a2.5 2.5 0 0 1 2.46-4.35l4.24 2.4a2.5 2.5 0 0 1-1.23 4.67z"/><path class="cls-3" d="M104.72 213.37l-2.39 4.34"/><path class="cls-2" d="M102.33 220.21a2.5 2.5 0 0 1-2.19-3.71l2.39-4.34a2.5 2.5 0 0 1 4.38 2.41l-2.39 4.34a2.5 2.5 0 0 1-2.19 1.3z"/><path class="cls-3" d="M96.46 228.38l-2.39 4.34"/><path class="cls-2" d="M94.07 235.22a2.5 2.5 0 0 1-2.19-3.71l2.39-4.34a2.5 2.5 0 0 1 4.38 2.41l-2.39 4.34a2.5 2.5 0 0 1-2.19 1.3z"/><path class="cls-3" d="M93.82 92.87l10.37 5.55-10.37 5.54-5.67 10.13-5.66-10.13-10.37-5.54 10.37-5.55 5.66-10.13 5.67 10.13z"/><path class="cls-2" d="M88.15 116.09a2 2 0 0 1-1.75-1l-5.4-9.65-9.85-5.26a2 2 0 0 1 0-3.53L81 91.39l5.38-9.62a2 2 0 0 1 3.49 0l5.38 9.62 9.85 5.27a2 2 0 0 1 0 3.53l-9.85 5.26-5.38 9.62a2 2 0 0 1-1.72 1.02zM76.36 98.42l7.07 3.78a2 2 0 0 1 .8.79l3.92 7 3.92-7a2 2 0 0 1 .8-.79l7.07-3.78-7.07-3.78a2 2 0 0 1-.8-.79l-3.92-7-3.92 7a2 2 0 0 1-.8.79z"/><path class="cls-3" d="M183.46 150.66a19.4 19.4 0 0 1 0 38.8"/><path class="cls-2" d="M183.46 191.47a2 2 0 0 1 0-4 17.4 17.4 0 0 0 0-34.8 2 2 0 0 1 0-4 21.4 21.4 0 0 1 0 42.8zm-53.11-50.54h-4.6a2 2 0 0 1 0-4h4.6a2 2 0 0 1 0 4zm51.82 0h-43.4a2 2 0 0 1 0-4h43.41a2 2 0 0 1-.01 4z"/><path class="cls-3" d="M132.58 94.17c.81.48 4.6 3.31 2.37 6.86s-2.64 7.23.65 9.87"/><path class="cls-2" d="M135.6 112.9a2 2 0 0 1-1.25-.44c-3.79-3-4.19-7.58-1.1-12.49a2 2 0 0 0 .34-1.6 5 5 0 0 0-2-2.47 2 2 0 1 1 2-3.44 9 9 0 0 1 3.88 5 6 6 0 0 1-.84 4.67c-3 4.71-.58 6.61.21 7.24a2 2 0 0 1-1.24 3.53z"/><path class="cls-3" d="M145.21 94.17c.81.48 4.6 3.31 2.37 6.86s-2.64 7.23.65 9.87"/><path class="cls-2" d="M148.23 112.9a2 2 0 0 1-1.25-.44c-3.79-3-4.19-7.58-1.1-12.49a2 2 0 0 0 .34-1.6 5 5 0 0 0-2-2.47 2 2 0 1 1 2-3.44 9 9 0 0 1 3.88 5 6 6 0 0 1-.84 4.67c-3 4.71-.58 6.61.21 7.24a2 2 0 0 1-1.24 3.53z"/><path class="cls-3" d="M157.84 94.17c.81.48 4.6 3.31 2.37 6.86s-2.64 7.23.65 9.87"/><path class="cls-2" d="M160.86 112.9a2 2 0 0 1-1.25-.44c-3.79-3-4.19-7.58-1.1-12.49a2 2 0 0 0 .34-1.6 5 5 0 0 0-2-2.47 2 2 0 0 1 2-3.44 9 9 0 0 1 3.88 5 6 6 0 0 1-.84 4.67c-3 4.71-.58 6.61.21 7.24a2 2 0 0 1-1.24 3.53z"/><circle class="cls-3" cx="218.04" cy="239.5" r="2.12"/><path class="cls-2" d="M218 243.62a4.12 4.12 0 1 1 4.12-4.12 4.12 4.12 0 0 1-4.12 4.12zm0-4.24a.12.12 0 0 0-.12.12c0 .13.24.13.24 0a.12.12 0 0 0-.12-.12z"/><circle class="cls-3" cx="92.04" cy="159.02" r="2.12"/><path class="cls-2" d="M92 163.14a4.12 4.12 0 1 1 4.16-4.14 4.12 4.12 0 0 1-4.16 4.14zm0-4.24a.12.12 0 0 0-.12.12c0 .13.24.13.24 0a.12.12 0 0 0-.12-.11z"/><circle class="cls-3" cx="125.74" cy="44.17" r="2.12"/><path class="cls-2" d="M125.74 48.29a4.12 4.12 0 1 1 4.12-4.12 4.12 4.12 0 0 1-4.12 4.12zm0-4.24a.12.12 0 0 0-.12.12c0 .13.24.13.24 0a.12.12 0 0 0-.12-.12zm25.54 115.51l3.88-4.64 2.74-1 7.2 20.22-3.9 1.39-5.59-15.72-3 3.42z"/><path class="cls-5" d="M139.67 183.07a1.68 1.68 0 0 1-2.15-1l-6.38-17.93a1.68 1.68 0 1 1 3.17-1.13l6.38 17.93a1.68 1.68 0 0 1-1.02 2.13zm7.27-2.59a1.68 1.68 0 0 1-2.15-1l-6.38-17.93a1.68 1.68 0 0 1 3.17-1.13l6.42 17.91a1.68 1.68 0 0 1-1.06 2.15z"/><path class="cls-5" d="M147.78 166l-17.93 6.38a1.68 1.68 0 0 1-1.13-3.17l17.93-6.38a1.68 1.68 0 1 1 1.13 3.17zm2.59 7.26l-17.93 6.38a1.68 1.68 0 0 1-1.13-3.17l17.93-6.38a1.68 1.68 0 0 1 1.13 3.17z"/><path class="cls-2" d="M160.7 201.5a2.5 2.5 0 0 1 0-5 10.34 10.34 0 0 0 10.3-10.33 2.5 2.5 0 0 1 5 0 15.35 15.35 0 0 1-15.3 15.33z"/></svg>