<svg id="Layer_1" data-name="Layer 1" xmlns="http://www.w3.org/2000/svg" viewBox="0 0 300 300"><defs><style>.cls-1,.cls-5{fill:#fbf3f4}.cls-2{fill:none;stroke-linecap:round;stroke-linejoin:round}.cls-2,.cls-3,.cls-5{stroke:#ce912d;stroke-width:4px}.cls-3,.cls-7{fill:#fff}.cls-3,.cls-5{stroke-miterlimit:10}.cls-4{fill:#ce912d}.cls-6{fill:#fbcb14}</style></defs><title>Holiday2016_GiftCurator_People</title><path class="cls-1" d="M-2.92-3.58h306.49v306.49H-2.92z"/><path class="cls-2" d="M190.49 120.52s8.61-6.35 15.77-7.13l-6.6 13.83 13.86 4s-18.88 7.64-23.49 17.68m-80.89 22.35s-8.33 6.75-10.89 13.45l15-2.88.32 14.41s12.22-16.33 23.1-18.23"/><path class="cls-3" d="M118.95 109.58a24.3 24.3 0 0 0-13.19 3.64c-13.15 8.45-8.85 23.12-8.66 23.74 7.58 35.66 48.61 52.86 52.6 54.45 13-8.67 30-22.83 38.3-41.34 5-11.13 4.39-18.67 4.38-18.74a.65.65 0 0 1 0-.11c1.41-19-12.79-24.89-13.4-25.14a22 22 0 0 0-7.57-1.41c-15.47 0-24.38 18.8-24.47 19s-.12.27-.24.06c-4.97-8.15-16.99-14.15-27.75-14.15z"/><path class="cls-4" d="M184.54 132.14a2.91 2.91 0 1 1-5.82.39 12.06 12.06 0 0 0-12.83-11.21 2.91 2.91 0 1 1-.39-5.82 17.89 17.89 0 0 1 19.04 16.64z"/><path class="cls-5" d="M97.28 137.75s2.08 10.77 13.44 9.1c15-2.21 67.51-26.81 80.74-15.56 13.53 11.5 6.22 30-11 31.94 0 0-1.48-9.5-12.78-5.57s-64.91 28.57-76.84 5.74c-8.73-16.78 6.44-25.65 6.44-25.65z"/><path class="cls-4" d="M114.78 226.76a2 2 0 0 1-.88-.21A81.91 81.91 0 0 1 68 152.67a2 2 0 0 1 4 0A77.93 77.93 0 0 0 115.67 223a2 2 0 0 1-.89 3.76zm71.08-3.01A2 2 0 0 1 185 220a78.4 78.4 0 0 0 32.64-110.45 2 2 0 1 1 3.43-2.05 82.41 82.41 0 0 1-34.31 116.08 2 2 0 0 1-.9.17z"/><path class="cls-6" d="M199.26 47.92L212.5 55l-13.24 7.08-7.24 12.95-7.24-12.95L171.53 55l13.25-7.08 7.24-12.95 7.24 12.95zm23.24 23.39l7.62 4.08-7.62 4.07-4.16 7.45-4.17-7.45-7.62-4.07 7.62-4.08 4.17-7.44 4.16 7.44zM95.93 104.72l5.11 2.73-5.11 2.74-2.79 4.99-2.8-4.99-5.11-2.74 5.11-2.73 2.8-4.99 2.79 4.99z"/><path class="cls-7" d="M72.85 62.38L83.59 74"/><path class="cls-4" d="M83.59 76.5a2.49 2.49 0 0 1-1.84-.8L71 64.08a2.5 2.5 0 0 1 3.67-3.39L85.43 72.3a2.5 2.5 0 0 1-1.84 4.2z"/><path class="cls-7" d="M98.05 51.97l.17 15.82"/><path class="cls-4" d="M98.22 70.29a2.5 2.5 0 0 1-2.5-2.47L95.55 52A2.5 2.5 0 0 1 98 49.47a2.5 2.5 0 0 1 2.5 2.47l.17 15.82a2.5 2.5 0 0 1-2.47 2.53z"/><path class="cls-7" d="M59.91 85.83l15.64 2.36"/><path class="cls-4" d="M75.56 90.69a2.46 2.46 0 0 1-.38 0L59.53 88.3a2.5 2.5 0 1 1 .75-4.94l15.65 2.36a2.5 2.5 0 0 1-.37 4.97z"/><path class="cls-7" d="M71.22 211.03l.01-.05"/><path class="cls-4" d="M71.22 215a4 4 0 0 1-3.89-4.91 4 4 0 1 1 3.89 4.91z"/><path class="cls-7" d="M61.21 194.7l.01-.04"/><path class="cls-4" d="M61.21 198.68a3.93 3.93 0 0 1-.88-.1 4 4 0 0 1-3-4.77 4 4 0 1 1 3.88 4.87z"/><path class="cls-7" d="M85.33 224.77l.01-.04"/><path class="cls-4" d="M85.33 228.75a3.93 3.93 0 0 1-.88-.1 4 4 0 0 1-3-4.77 4 4 0 1 1 3.88 4.87z"/><path class="cls-7" d="M101.94 233.01l.04.03"/><path class="cls-4" d="M102 237a4 4 0 1 1 2.12-7.39A4 4 0 0 1 102 237z"/><path class="cls-7" d="M56.58 176.84l.03.02"/><path class="cls-4" d="M56.61 180.86a4 4 0 0 1-2.2-.66 4 4 0 0 1-1.16-5.55 4 4 0 0 1 5.52-1.15 4 4 0 0 1-2.16 7.36z"/><circle class="cls-7" cx="167.5" cy="86.62" r="2.12"/><path class="cls-4" d="M167.5 90.74a4.12 4.12 0 1 1 4.12-4.12 4.12 4.12 0 0 1-4.12 4.12zm0-4.24a.12.12 0 0 0-.12.12c0 .13.24.13.24 0a.12.12 0 0 0-.12-.12z"/><circle class="cls-4" cx="192.65" cy="186.33" r="2.12"/><path class="cls-4" d="M192.65 189a2.62 2.62 0 1 1 2.62-2.62 2.62 2.62 0 0 1-2.62 2.62zm0-4.24a1.62 1.62 0 1 0 1.62 1.62 1.62 1.62 0 0 0-1.62-1.67z"/><path class="cls-2" d="M173.9 227.37l9.36 5.01-9.36 5-5.12 9.16-5.13-9.16-9.36-5 9.36-5.01 5.13-9.16 5.12 9.16z"/></svg>