<svg id="Layer_1" data-name="Layer 1" xmlns="http://www.w3.org/2000/svg" viewBox="0 0 300 300"><defs><style>.cls-1{fill:#fbf3f4}.cls-2{fill:#ce912d}.cls-3{fill:#fff}.cls-4{fill:#ff661a}</style></defs><title>Holiday2016_GiftCurator_People</title><path class="cls-1" d="M-3.24-3.24h306.49v306.49H-3.24z"/><path class="cls-2" d="M150 232.35a81.91 81.91 0 0 1-31.13-6.09 2 2 0 1 1 1.51-3.7 78.4 78.4 0 0 0 101.45-103.9 2 2 0 1 1 3.67-1.6A82.4 82.4 0 0 1 150 232.35zM126.94 75a2 2 0 0 1-.57-3.92 82.95 82.95 0 0 1 42.4-1.29 2 2 0 0 1-.91 3.9 78.94 78.94 0 0 0-40.35 1.23 2 2 0 0 1-.57.08z"/><path class="cls-3" d="M115.07 102.31h65.82v78.11h-65.82z"/><path class="cls-2" d="M180.89 182.41h-65.82a2 2 0 0 1-2-2v-78.1a2 2 0 0 1 2-2h65.82a2 2 0 0 1 2 2v78.11a2 2 0 0 1-2 1.99zm-63.82-4h61.82v-74.1h-61.82v74.11z"/><path class="cls-3" d="M122.49 180.41h51.17v12h-51.17z"/><path class="cls-2" d="M173.66 194.41h-51.17a2 2 0 0 1-2-2v-12a2 2 0 0 1 2-2h51.17a2 2 0 0 1 2 2v12a2 2 0 0 1-2 2zm-49.17-4h47.17v-8h-47.17v8z"/><path class="cls-1" d="M125.53 112.09h45.09v38.58h-45.09z"/><path class="cls-2" d="M172.62 152.67h-49.09v-42.58h49.09v42.58zm-45.09-4h41.09v-34.58h-41.09v34.58z"/><circle class="cls-3" cx="126.94" cy="166.03" r="2.98"/><path class="cls-2" d="M126.94 171a5 5 0 1 1 5-5 5 5 0 0 1-5 5zm0-6a1 1 0 1 0 1 1 1 1 0 0 0-1-.95zm36.89 3h-18.35a2 2 0 1 1 0-4h18.36a2 2 0 0 1-.01 4z"/><path class="cls-3" d="M163.83 161.95h8.07v8.07h-8.07z"/><path class="cls-2" d="M171.9 172h-8.06a2 2 0 0 1-2-2v-8a2 2 0 0 1 2-2h8.06a2 2 0 0 1 2 2v8a2 2 0 0 1-2 2zm-6.06-4h4.06v-4h-4.06v4zm-26.57-29.59H142v2.73h-2.73zm5.42-5.07h2.73v2.73h-2.73z"/><path class="cls-2" d="M141.31 140.27h13.91V143h-13.91z"/><path class="cls-2" transform="rotate(90 139.265 124.075)" d="M135.79 122.71h6.96v2.73h-6.96z"/><path class="cls-2" transform="rotate(180 157.53 124.075)" d="M154.05 122.71h6.96v2.73h-6.96z"/><path class="cls-2" transform="rotate(90 148.585 131.365)" d="M143.88 130h9.4v2.73h-9.4z"/><path class="cls-2" d="M154.47 138.41h2.73v2.73h-2.73z"/><path class="cls-3" d="M75.28 59.18L86.8 71.43"/><path class="cls-2" d="M86.8 73.43a2 2 0 0 1-1.46-.63L73.82 60.55a2 2 0 1 1 2.91-2.74l11.53 12.24a2 2 0 0 1-1.46 3.38z"/><path class="cls-3" d="M101.95 47.88l.33 16.81"/><path class="cls-2" d="M102.28 66.69a2 2 0 0 1-2-2L100 47.92a2 2 0 0 1 2-2 2 2 0 0 1 2 2l.33 16.81a2 2 0 0 1-2 2z"/><path class="cls-3" d="M61.75 84.22l16.64 2.36"/><path class="cls-2" d="M78.4 88.58h-.28L61.46 86.2a2 2 0 0 1 .56-4l16.65 2.4a2 2 0 0 1-.27 3.98z"/><circle class="cls-4" cx="190.49" cy="45.1" r="3.98"/><circle class="cls-4" cx="235.29" cy="91.64" r="3.98"/><path class="cls-3" d="M213.76 51.21l3.78 13.98L231.21 70l-12.13 7.93-.35 14.48-11.29-9.09-13.88 4.14 5.16-13.54-8.23-11.93 14.47.73 8.8-11.51z"/><path class="cls-2" d="M218.73 94.41a2 2 0 0 1-1.25-.44L207 85.54l-12.88 3.84a2 2 0 0 1-2.44-2.63l4.79-12.56-7.63-11.06a2 2 0 0 1-.1-2.11 2 2 0 0 1 1.85-1l13.41.65L212.17 50a2 2 0 0 1 3.52.69l3.51 13 12.68 4.46a2 2 0 0 1 .43 3.56L221.05 79l-.33 13.44a2 2 0 0 1-1.99 1.97zm-11.29-13.09a2 2 0 0 1 1.25.44l8.13 6.55.25-10.43a2 2 0 0 1 .91-1.63l8.74-5.71-9.85-3.47a2 2 0 0 1-1.27-1.36l-2.73-10.08-6.34 8.29a2 2 0 0 1-1.69.78l-10.43-.52 5.93 8.59a2 2 0 0 1 .22 1.85l-3.72 9.75 10-3a2 2 0 0 1 .6-.05z"/><path class="cls-4" d="M96.27 197.02l13.38 7.15-13.38 7.16-7.32 13.08-7.31-13.08-13.38-7.16 13.38-7.15 7.31-13.08 7.32 13.08z"/><path class="cls-3" d="M228.86 221.71l5.75 3.07-5.75 3.08-3.15 5.62-3.15-5.62-5.75-3.08 5.75-3.07 3.15-5.62 3.15 5.62z"/><path class="cls-2" d="M225.71 235.48a2 2 0 0 1-1.75-1l-2.86-5.11-5.24-2.8a2 2 0 0 1 0-3.53l5.24-2.8 2.86-5.11a2 2 0 0 1 3.49 0l2.86 5.11 5.24 2.8a2 2 0 0 1 0 3.53l-5.24 2.8-2.86 5.11a2 2 0 0 1-1.74 1zm-4.66-10.7l2.45 1.31a2 2 0 0 1 .8.79l1.4 2.5 1.4-2.5a2 2 0 0 1 .8-.79l2.45-1.31-2.45-1.31a2 2 0 0 1-.8-.79l-1.4-2.5-1.4 2.5a2 2 0 0 1-.8.79z"/><path class="cls-3" d="M198.48 134.71l4.75 1.36"/><path class="cls-2" d="M203.23 138.07a2 2 0 0 1-.55-.08l-4.75-1.36a2 2 0 1 1 1.1-3.85l4.75 1.36a2 2 0 0 1-.55 3.93z"/><path class="cls-3" d="M213.64 139.06l4.75 1.36"/><path class="cls-2" d="M218.39 142.42a2 2 0 0 1-.55-.08l-4.75-1.34a2 2 0 1 1 1.1-3.85l4.75 1.36a2 2 0 0 1-.55 3.91z"/><path class="cls-3" d="M211.43 126.46l-1.36 4.74"/><path class="cls-2" d="M210.07 133.2a2 2 0 0 1-1.92-2.55l1.36-4.75a2 2 0 0 1 3.85 1.1l-1.36 4.75a2 2 0 0 1-1.93 1.45z"/><path class="cls-3" d="M206.73 142.85l-1.36 4.75"/><path class="cls-2" d="M205.37 149.6a2 2 0 0 1-1.92-2.55l1.36-4.75a2 2 0 0 1 3.85 1.1l-1.36 4.75a2 2 0 0 1-1.93 1.45z"/><path class="cls-3" d="M54.77 168.1l.03-.04"/><path class="cls-2" d="M54.77 172.07a4 4 0 0 1-3.18-6.4 4 4 0 1 1 3.18 6.4z"/><path class="cls-3" d="M51.97 146.72l.03-.04"/><path class="cls-2" d="M52 150.69a4 4 0 0 1-3.18-6.4 4 4 0 1 1 3.18 6.4z"/><path class="cls-3" d="M55.41 126.23l.02.05"/><path class="cls-2" d="M55.44 130.28a4 4 0 1 1 3.31-6.28 4 4 0 0 1-3.31 6.28z"/><circle class="cls-3" cx="95.33" cy="143" r=".91"/><path class="cls-2" d="M95.33 147.91a4.91 4.91 0 1 1 4.91-4.91 4.91 4.91 0 0 1-4.91 4.91zm74.99 64a4 4 0 0 1-2.83-6.83 4.21 4.21 0 0 1 .61-.5 4.54 4.54 0 0 1 .69-.37 4.89 4.89 0 0 1 .75-.23 4.11 4.11 0 0 1 1.56 0 4.57 4.57 0 0 1 .75.23 4.16 4.16 0 0 1 .69.37 3.79 3.79 0 0 1 .61.5 4.38 4.38 0 0 1 .5.61 4.21 4.21 0 0 1 .37.69 3.79 3.79 0 0 1 .22.75 3.41 3.41 0 0 1 .08.78 4 4 0 0 1-4 4zm-26.32 0a4 4 0 0 1-2.83-6.83 4.21 4.21 0 0 1 .61-.5 4.54 4.54 0 0 1 .69-.37 4.89 4.89 0 0 1 .75-.23 4.11 4.11 0 0 1 1.56 0 4.57 4.57 0 0 1 .75.23 4.16 4.16 0 0 1 .69.37 3.79 3.79 0 0 1 .61.5 4.38 4.38 0 0 1 .5.61 4.21 4.21 0 0 1 .37.69 3.79 3.79 0 0 1 .22.75 3.41 3.41 0 0 1 .08.78 4 4 0 0 1-4 4zm13.15 0a4 4 0 1 1 3.84-5.14 4 4 0 0 1-3.84 5.14z"/></svg>